<?xml version="1.0" encoding="UTF-8"?>
<!DOCTYPE svg PUBLIC "-//W3C//DTD SVG 1.1//EN" "http://www.w3.org/Graphics/SVG/1.1/DTD/svg11.dtd">
<!-- Creator: CorelDRAW X7 -->
<svg xmlns="http://www.w3.org/2000/svg" xml:space="preserve" width="200mm" height="200mm" version="1.1" style="shape-rendering:geometricPrecision; text-rendering:geometricPrecision; image-rendering:optimizeQuality; fill-rule:evenodd; clip-rule:evenodd"
viewBox="0 0 20000 20000"
 xmlns:xlink="http://www.w3.org/1999/xlink">
 <defs>
  <style type="text/css">
   <![CDATA[
    .fil0 {fill:#FEFEFE}
    .fil21 {fill:#1547A6}
    .fil39 {fill:#1F1A17}
    .fil31 {fill:#393834}
    .fil63 {fill:#53504B}
    .fil62 {fill:#9C9A97}
    .fil56 {fill:#C2C2C2}
    .fil53 {fill:#C6C5C5}
    .fil49 {fill:#CCCCCB}
    .fil48 {fill:#CFCECE}
    .fil52 {fill:#D9D9D9}
    .fil1 {fill:#E6E6E6}
    .fil64 {fill:#F5F1DA}
    .fil65 {fill:#F7CB1A}
    .fil24 {fill:#F7E497}
    .fil3 {fill:#F91C26}
    .fil16 {fill:#FA333C}
    .fil8 {fill:#FA4B53}
    .fil23 {fill:#FB646B}
    .fil7 {fill:#FB757B}
    .fil9 {fill:#FC8D92}
    .fil25 {fill:#FCA6A9}
    .fil28 {fill:#FCB6B9}
    .fil19 {fill:#FDCED0}
    .fil47 {fill:#FDDFE1}
    .fil11 {fill:#FDEB99}
    .fil5 {fill:#FDEDA5}
    .fil55 {fill:#FDF6D3}
    .fil2 {fill:#FECC02}
    .fil60 {fill:#FECF11}
    .fil14 {fill:#FED21C}
    .fil6 {fill:#FED323}
    .fil46 {fill:#FED52C}
    .fil41 {fill:#FED738}
    .fil22 {fill:#FED83C}
    .fil27 {fill:#FED942}
    .fil38 {fill:#FEDA46}
    .fil45 {fill:#FEDB49}
    .fil26 {fill:#FEDC51}
    .fil37 {fill:#FEDD56}
    .fil15 {fill:#FEDE5A}
    .fil4 {fill:#FEDE5D}
    .fil61 {fill:#FEDF62}
    .fil50 {fill:#FEE166}
    .fil51 {fill:#FEE16A}
    .fil57 {fill:#FEE26E}
    .fil44 {fill:#FEE479}
    .fil10 {fill:#FEE57E}
    .fil12 {fill:#FEE681}
    .fil58 {fill:#FEE78A}
    .fil32 {fill:#FEE88D}
    .fil29 {fill:#FEE991}
    .fil17 {fill:#FEEEAA}
    .fil13 {fill:#FEEFAD}
    .fil43 {fill:#FEF0B6}
    .fil42 {fill:#FEF1BA}
    .fil40 {fill:#FEF2C1}
    .fil18 {fill:#FEF3C5}
    .fil59 {fill:#FEF3F3}
    .fil54 {fill:#FEF4CB}
    .fil33 {fill:#FEF7DA}
    .fil34 {fill:#FEF9E7}
    .fil20 {fill:#FF861D}
    .fil30 {fill:#FFE061}
    .fil35 {fill:#FFE475}
    .fil36 {fill:#FFF8DD}
   ]]>
  </style>
 </defs>
 <g id="Layer_x0020_1">
  <metadata id="CorelCorpID_0Corel-Layer"/>
  <g id="_427079312">
   <path class="fil0" d="M14673 11373c113,-109 239,-485 252,-684 -80,-55 -146,-109 -232,-176 -239,-170 -478,-303 -751,-436 -942,-448 -2157,-708 -3232,-799 -193,-12 -585,-54 -764,-30 93,6 584,121 710,145 664,151 1395,351 2005,587 664,261 1408,630 1832,1150 80,91 100,140 160,218l20 25z"/>
   <g>
    <path class="fil0" d="M10099 16325l-7 -497c160,-12 445,-12 591,6 186,12 345,67 345,242 -6,85 -66,146 -113,176 -152,85 -637,79 -816,73zm1162 369c159,-12 365,-91 471,-157 478,-303 411,-921 -126,-1108 -332,-115 -837,-91 -1215,-91 -312,0 -1049,-12 -1308,0l0 2434 1009 0 0 -987c179,-24 332,24 425,109 47,48 372,502 445,593 20,30 186,279 226,285l1115 0c-20,-61 -166,-255 -213,-315 -73,-103 -146,-206 -219,-315 -93,-133 -146,-182 -252,-279 -159,-139 -259,-115 -358,-169z"/>
    <path class="fil0" d="M6521 15889c650,0 982,12 989,666 0,684 -312,660 -989,660l0 -1326zm-1016 1877c100,18 418,6 544,6 492,0 1109,24 1567,-67 1095,-212 1062,-1465 671,-1925 -425,-491 -1036,-442 -1693,-442 -160,0 -1003,-12 -1089,0l0 2428z"/>
    <path class="fil0" d="M13677 15889c650,-12 976,24 982,666 7,672 -305,672 -989,660l7 -1326zm-1016 1883c365,0 730,0 1096,0 630,0 1274,24 1686,-454 172,-194 239,-448 239,-763 0,-624 -352,-1048 -910,-1163 -332,-72 -683,-54 -1029,-54 -358,0 -723,-6 -1088,0l6 2434z"/>
    <path class="fil0" d="M14925 10689c-13,199 -139,575 -252,684 -87,187 -419,460 -611,599 -1022,745 -2961,1144 -4269,1350l-650 97c-53,12 -146,18 -186,36l-26 6c557,6 1208,-48 1752,-109 1248,-133 2861,-430 3910,-1077l266 -176c73,-66 225,-163 345,-309 53,-60 99,-103 152,-181 34,-43 100,-158 133,-194 13,-61 60,-127 86,-200 80,-212 113,-466 87,-690 -146,-1314 -1992,-2034 -3233,-2367 -418,-109 -1547,-351 -1952,-333 405,73 1096,254 1494,369 717,218 1347,454 1945,836 126,78 411,290 511,399 139,152 272,303 378,527 87,200 166,509 120,733z"/>
    <path class="fil0" d="M14859 12099c-20,1199 -1448,1853 -2576,2210 -989,315 -1965,502 -3014,666l-1075 157c438,30 1009,-6 1447,-30 1261,-67 2549,-248 3697,-630 359,-121 711,-272 1003,-436 610,-339 1155,-805 1294,-1489 73,-345 20,-860 -146,-1132 -33,36 -99,151 -133,194 -53,78 -99,121 -152,181 -120,146 -272,243 -345,309z"/>
    <path class="fil0" d="M13942 18183l107 327 -219 0 112 -327zm-1261 -66c113,0 299,-25 292,97 -6,115 -172,96 -292,96l0 -193zm372 345c53,-31 99,-31 146,-73 133,-103 126,-333 -20,-412 -100,-60 -259,-54 -392,-54 -126,0 -305,-6 -424,6l0 944 318 0 0 -381c140,0 153,79 206,163 27,49 106,200 146,218l677 0 47 -157 365 6 46 151 339 -6 -292 -708c-14,-36 -73,-224 -113,-236l-332 6 -385 938c-33,-30 -53,-78 -73,-121 -80,-127 -120,-236 -259,-284z"/>
    <path class="fil0" d="M9906 18873l312 0 173 -587c40,49 166,497 186,587l318 0 226 -950 -285 0c-47,18 -80,436 -126,515 -54,-91 -127,-497 -180,-515l-265 0c-33,18 -27,18 -33,60l-60 200c-27,85 -60,176 -80,261 -53,-91 -73,-388 -119,-521l-299 6 232 944z"/>
    <path class="fil0" d="M14912 18371c26,12 0,0 20,18 53,42 338,478 378,484l292 0 -7 -950 -292 0c-20,79 0,406 -6,515 -40,-31 -160,-206 -199,-261l-147 -194c-59,-84 -59,-60 -345,-60l0 950 306 -6 0 -496z"/>
    <path class="fil0" d="M6873 18129l537 -6 0 -200 -849 0c-27,79 -7,811 -7,950 153,0 770,6 870,-6l0 -205 -551 -7 0 -181 498 -6 0 -188 -498 -6 0 -145z"/>
    <path class="fil0" d="M7543 18559c-46,417 870,460 936,48 47,-345 -445,-345 -558,-393 -112,-55 0,-176 147,-116 59,25 46,55 79,109l292 -18c14,-218 -232,-290 -478,-278 -239,12 -438,139 -371,351 59,188 292,176 497,254 133,49 93,176 -39,188 -173,12 -160,-79 -213,-164l-292 19z"/>
    <path class="fil0" d="M8990 18510c14,-60 80,-284 113,-327l106 327 -219 0zm-139 363c26,-12 13,19 40,-78 13,-25 20,-49 26,-79l359 0 59 157 332 0c-13,-36 -365,-938 -398,-950l-338 6 -386 944 306 0z"/>
    <path class="fil0" d="M11579 18510c0,-54 53,-181 73,-248l40 -73 100 321 -213 0zm-79 206l365 0 46 157 339 0c-47,-151 -140,-333 -199,-484l-147 -357c-53,-145 0,-109 -391,-103l-385 944 325 0 47 -157z"/>
    <path class="fil0" d="M5824 18117c119,0 252,-12 245,109 0,109 -126,103 -245,103l0 -212zm0 405c172,-6 338,18 451,-72 146,-115 219,-521 -252,-527 -159,0 -359,-6 -518,6l0 944 319 0 0 -351z"/>
   </g>
  </g>
  <path class="fil1" d="M9519 3085l0 297c33,42 99,78 126,121 33,18 33,24 60,54 20,18 33,30 53,55 26,24 73,78 79,121 20,12 7,-6 27,24 7,6 13,18 13,24 13,18 20,42 20,67 33,30 13,30 13,30 7,6 7,24 7,30l0 206c13,12 20,12 27,12 53,49 6,36 46,73 27,18 86,24 120,36 86,36 245,30 292,12l13 -133c99,6 179,85 219,127 60,61 86,133 80,236 -14,140 -173,255 -253,315 0,55 0,127 27,164 93,133 166,102 252,30l53 -49c14,-24 7,-18 33,-36 54,-48 74,-73 160,-97l26 -230c100,12 219,121 259,164 47,54 153,181 140,272 66,48 -34,-30 33,12 20,12 33,49 46,79 27,91 107,181 199,236l60 36c73,37 199,-6 239,-18 20,0 33,-6 67,-6 0,-6 -20,0 -14,-18 140,-36 20,-67 219,-67 73,-54 107,-84 239,-121 107,-24 219,-36 279,37 -33,54 -139,121 -166,187 -6,73 0,109 -13,176 -33,127 13,224 113,308 46,37 40,7 73,55 86,6 99,-6 166,-6l6 -49c67,-6 60,-6 93,-36l100 -97c40,-42 20,-60 80,-60 -27,-127 -60,-188 -93,-285 53,6 119,37 166,61 53,24 106,42 132,85 93,18 266,236 319,357 226,508 -13,1108 -385,1447 -252,230 -571,357 -1069,308 -212,-24 -398,-66 -571,-145 -93,-36 -391,-200 -425,-248 -66,-30 -172,-109 -252,-152 -53,-30 -239,-108 -265,-127 -306,-48 -512,-109 -830,-42 -286,61 -405,176 -578,321 -46,-24 -132,-127 -272,-206 -418,-242 -856,-109 -1215,-48 -26,18 -26,18 -59,30 -166,66 -359,200 -405,218 -7,18 -80,54 -100,66 -40,25 -66,43 -106,61 -571,333 -1394,430 -1846,-18 -33,-31 -66,-55 -93,-91 -325,-363 -504,-890 -298,-1350 46,-109 199,-339 305,-363 27,-55 232,-146 325,-164 -20,67 -73,139 -73,212 20,91 27,30 67,97 6,6 20,24 20,24 13,18 -7,0 20,18 66,49 19,25 53,61 20,30 33,18 66,48l20 12c60,43 20,-6 66,55 107,6 100,6 133,-24 86,-91 73,-12 120,-115 39,-85 13,-249 20,-357l26 -19c-26,-78 -153,-157 -179,-205 86,-79 139,-49 272,-43 60,12 139,0 193,18 0,0 -20,0 -14,18 40,19 53,7 100,19 6,0 172,84 232,90 -60,6 -26,-6 -40,25 14,6 73,18 87,18 46,24 6,6 0,18l225 6c27,-30 14,-24 47,-48l13 -13c0,0 7,0 7,-6l66 -54c27,-18 7,6 27,-18 53,-37 40,-158 93,-248 13,-19 0,12 13,-19 7,-30 7,-60 7,-90 19,0 -27,18 19,0 60,-25 27,-91 146,-97 67,-67 140,-146 279,-188 0,85 7,242 40,303 140,12 100,72 206,163 40,30 73,61 133,73 53,12 59,-12 159,-18 0,0 -7,0 7,-18l33 -49c6,-6 6,-12 13,-18 13,-30 13,-42 13,-85 0,-30 0,-54 14,-72 -87,-79 -279,-188 -312,-321 -87,-164 132,-412 285,-406l0 42c80,0 179,7 252,0 213,-24 120,-272 193,-423l26 -55c34,-48 14,-42 34,-66 20,-25 39,0 66,-37 13,-18 20,-60 86,-115l126 -121c127,-79 54,-12 100,-115l0 -188c-20,0 -40,0 -53,0l-33 7c0,0 -7,6 -7,6l80 -6 0 78c-47,18 -93,24 -133,49l-100 90c-46,55 -53,25 -86,61 0,0 -7,0 -7,6l-139 176c0,6 0,6 -7,6 -53,54 -26,24 -39,91l-20 72c-27,73 -27,139 -60,206 -33,73 -33,121 -139,109 -60,-6 -34,6 -107,12 -252,24 -325,-54 -444,79l-47 66c-40,61 -53,115 -80,176 -13,30 -6,18 -26,42 -73,109 -53,91 -219,109 -53,0 -166,-6 -213,37l-192 308c-13,37 -20,18 -33,55l-67 218c-20,85 -59,97 -159,91l-113 -43c0,0 0,0 -7,0 -13,-12 0,-6 -13,-18l-133 -73c-33,-18 -39,-24 -73,-48 -99,-55 -205,-67 -325,-67 -99,0 -232,6 -292,91 -126,164 -40,309 -345,273 -86,-13 -166,-6 -252,-13 -166,-18 -246,67 -352,158 0,6 0,6 -7,6 0,6 -13,18 -13,18 -80,79 -140,170 -186,266 -13,31 -27,49 -40,79 -20,49 -33,30 -46,85l-60 194c-7,72 -27,387 0,454 13,36 7,6 20,36 6,12 13,42 13,55l60 193c13,30 26,61 40,91 40,91 106,230 172,315 14,24 33,42 53,66l120 140c106,109 206,145 265,199 27,31 14,25 60,43 159,54 199,109 432,157 146,30 590,43 756,0 47,-12 67,-18 107,-24 99,-18 132,-48 199,-61 99,-24 186,-66 279,-109 0,0 0,0 6,0 80,-36 179,-72 233,-133 33,-42 99,-54 166,-97 13,-12 13,-18 26,-24l126 -72c27,-19 47,-43 80,-55 80,-18 106,-48 186,-73 219,-66 737,-109 929,25l166 78c100,37 86,31 226,31 79,0 186,12 252,-12l266 -122c39,-18 59,-18 99,-30 -40,0 -66,6 -93,-12 233,-6 505,-48 711,-6 245,55 331,97 517,224 53,36 107,79 166,97 67,24 113,73 166,103 47,30 87,30 140,60 33,18 26,12 66,25 27,12 40,18 60,24 66,24 79,36 146,48 46,12 33,12 66,24 146,67 418,79 578,79 106,0 212,6 312,-12 46,-12 20,-6 46,-12 80,-24 166,-36 246,-73 13,-12 6,-6 33,-12 119,-42 153,-79 246,-127l205 -145c53,-49 120,-103 153,-158l66 -84c14,-25 20,-25 34,-49l79 -115c33,-48 53,-115 87,-169l39 -91c0,-6 0,-6 0,-12 14,-18 7,-6 7,-31 13,-102 40,-115 53,-205 13,-79 47,-237 40,-309 -20,-158 -40,-291 -93,-424 -7,-24 -20,-42 -26,-60l-60 -128c-20,-66 -60,-109 -100,-163l-86 -91c-47,-48 -153,-133 -226,-145 -66,-6 -305,-6 -378,6 -292,36 -193,-236 -392,-321 -53,-24 -471,-42 -564,67l-27 30c-66,54 -179,121 -252,151 -226,85 -226,-121 -279,-242 -26,-60 -26,-157 -53,-218l-53 -97c0,-6 0,-6 -7,-12l-66 -79c-7,0 -7,-6 -7,-6l-39 -30c-27,-30 -7,6 -20,-30 -193,-6 -306,30 -372,-49l-86 -109c-14,-30 -14,-48 -27,-72 -26,-55 -73,-139 -119,-176 -67,-54 -286,-30 -385,-30 -27,-6 -73,-6 -100,0 -40,6 -33,18 -73,30 -27,-24 -40,-12 -60,-42l-73 -242c-20,-79 -33,-152 -73,-230l-126 -140c-7,-18 -7,-18 -13,-42l-233 -206c-6,0 -6,-6 -6,-6 -40,-18 -113,-18 -146,-36z"/>
  <path class="fil2" d="M11304 7238c34,48 332,212 425,248 173,79 359,121 571,145 498,49 817,-78 1069,-308 372,-339 611,-939 385,-1447 -53,-121 -226,-339 -319,-357 -20,54 7,181 -126,441l-93 152c-59,79 -73,103 -146,169 -93,91 -126,140 -239,224l-86 67c-7,6 -13,12 -13,12l-412 254c-166,79 -465,212 -644,261 -66,24 -325,109 -372,115l0 24z"/>
  <path class="fil2" d="M7428 7232l-299 -109c-33,-12 -7,-6 -40,-12l-392 -152c-139,-54 -405,-187 -524,-266 -80,-54 -126,-73 -199,-133 0,-6 -7,-6 -7,-6 -93,-73 -179,-146 -259,-230l-33 -25c-119,-127 -212,-266 -285,-417 -73,-164 -67,-285 -100,-345 -106,24 -259,254 -305,363 -206,460 -27,987 298,1350 27,36 60,60 93,91 452,448 1275,351 1846,18 40,-18 66,-36 106,-61 20,-12 93,-48 100,-66z"/>
  <path class="fil3" d="M6897 9217c0,115 212,400 278,461 120,121 239,230 425,326 764,394 1700,176 2158,-490 99,-145 179,-321 219,-514 60,-309 0,-394 -33,-642 -27,48 -20,72 -27,121 -7,79 -20,42 -46,97 -7,12 -14,36 -20,54 -20,49 -34,37 -47,91 -13,91 -73,121 -93,139 -46,55 -26,49 -60,91l-278 248c-173,115 -379,218 -584,279 -133,36 -140,30 -246,54 -80,18 -179,18 -279,18 -425,6 -631,-48 -996,-175l-298 -145c-20,-13 -60,-49 -73,-13z"/>
  <path class="fil4" d="M6638 6154c46,24 53,43 86,67l93 72c113,85 159,103 272,170 33,18 66,36 100,54l219 97c40,18 73,31 106,43l232 78c140,49 352,85 505,121 60,19 86,0 152,13 160,30 372,-25 638,102 40,19 33,25 73,31 99,0 179,12 265,12 87,-6 166,-18 266,-12 53,-12 99,-43 153,-61 53,-18 106,-36 172,-48 146,-31 266,-6 392,-24 232,-25 318,-49 538,-109l537 -188 339 -182c0,0 0,0 6,0 0,-6 7,-6 7,-6l193 -139c79,-54 146,-103 146,-170 0,-96 -107,-296 -166,-345 -14,315 -266,497 -604,352l-146 115c-47,30 -127,78 -186,90l79 79c-59,103 -166,200 -265,260 -259,158 -252,0 -339,-66 -33,30 -53,24 -99,30 -140,30 -200,49 -359,67 -66,12 -179,18 -252,24 -133,24 -677,30 -810,12 -86,-18 -173,-18 -259,-30l-252 -55c-20,6 -113,97 -120,103 -46,-91 -39,-127 -6,-218 -87,55 -233,194 -372,206 -166,18 -266,-157 -252,-309 -14,6 -20,0 -27,12 -40,-24 -79,-36 -119,-60l-326 -188c7,0 14,-6 14,-6 0,-6 6,-6 6,-12 0,0 0,0 7,-6 -146,12 -259,-36 -325,-103 -73,-73 -107,-163 -120,-297 -86,91 -166,273 -192,424z"/>
  <path class="fil5" d="M8291 5615c-40,91 -67,200 -146,261 -100,-18 -226,-127 -299,-188 -73,-73 -173,-145 -332,-151 40,66 73,60 113,133 40,73 26,109 33,188 0,48 13,48 93,102 60,49 199,134 265,164 34,12 40,18 73,30 14,12 14,12 40,18 20,6 7,12 34,6 46,-18 59,-48 99,-84 20,-19 86,-73 106,-85 27,30 53,60 60,121 -33,12 -60,24 -66,48 -20,43 13,31 53,43 20,-12 40,-30 66,-49 33,19 60,61 73,103 -53,24 -99,67 -119,133 53,-18 179,-127 232,-169 -40,-103 -113,-176 -93,-315 120,24 100,206 173,273 113,-6 285,-85 338,139 87,12 173,24 259,24 33,-12 199,-188 372,-230 219,-55 272,133 285,297 47,-19 73,-6 140,-37 26,-6 20,-12 46,-36 13,-18 27,-30 40,-42 40,-43 60,-61 100,-91 132,-109 152,-91 285,-73 33,6 33,6 66,0 7,-18 7,-12 14,-36 -27,-12 -40,-12 -33,-49 6,-36 13,-30 53,-36 59,-6 119,-6 179,-12 53,-18 186,-133 212,-164 27,-30 0,-30 20,-72 7,-30 -6,-12 13,-24 34,-134 93,-146 147,-212 -299,-18 -432,321 -638,333 -146,-140 -126,-291 -179,-370 7,55 0,79 -46,140 -40,54 -67,78 -127,121 -86,60 -146,91 -252,127l-99 36c-107,37 -372,73 -505,73 -246,0 -544,-18 -770,-109 -100,-49 -206,-97 -292,-170 0,-6 0,-6 -7,-6 -33,-36 -46,-54 -79,-103z"/>
  <path class="fil6" d="M5290 5537c33,60 27,181 100,345 73,151 166,290 285,417l33 25c80,84 166,157 259,230 0,0 7,0 7,6 73,60 119,79 199,133 119,79 385,212 524,266l392 152c33,6 7,0 40,12l299 109c46,-18 239,-152 405,-218 33,-12 33,-12 59,-30 -371,42 -511,90 -829,-79 -246,-127 -346,-273 -439,-515 -39,-12 -33,-6 -66,-36 -27,-24 -33,-30 -60,-48 -79,-55 -212,-188 -265,-261 -20,-36 -7,-48 -47,-48 -86,24 -93,66 -239,60 -458,-12 -471,-375 -405,-472 0,-73 53,-145 73,-212 -93,18 -298,109 -325,164z"/>
  <path class="fil7" d="M6923 8182c-53,85 -99,255 -113,370 27,-31 20,42 20,-37 40,18 47,43 53,43 100,90 20,30 87,72 13,6 0,0 13,6 20,12 13,12 26,18 100,67 -26,-24 73,61l266 188 139 54c107,36 173,61 292,85 67,12 80,18 153,24 47,6 120,12 179,12 352,0 585,-85 863,-254 0,0 -13,0 -20,0 -19,-6 -6,18 -19,-18 59,-24 53,6 139,-97 0,0 27,-24 27,-30l39 -25c40,-30 20,-36 47,-72 26,-43 60,-49 99,-133 27,-61 40,-115 67,-176 79,-163 6,-617 -120,-745 14,-12 0,-6 27,-12 -40,-54 -312,-169 -405,-169l-20 6c40,24 27,24 53,54l153 194c40,61 106,242 106,327 7,91 0,145 0,254l-27 0c-33,0 20,-6 -6,0l-33 115c-27,55 -27,109 -113,194 -73,67 -20,18 -67,85 -26,42 -33,18 -86,66 -73,73 -113,67 -206,115 -26,12 -20,19 -46,25 -27,12 -33,6 -60,12 -33,12 -20,6 -26,12 -47,24 -186,54 -226,54 -140,12 -246,18 -359,-12 -13,-6 -59,-12 -66,-12l-193 -42c-26,-6 -73,-43 -152,-49 0,0 0,-6 0,-6 0,-30 13,-6 -60,-42 0,0 -7,-6 -7,-6l-13 -6c-153,-79 -40,-18 -159,-103 -27,-24 -53,-43 -80,-67 -7,-6 -13,-18 -20,-24 -6,0 -6,-6 -20,-12l-46 -67c-80,-97 -133,-212 -153,-230z"/>
  <path class="fil8" d="M6810 8854c-6,30 -6,85 14,109 39,-18 33,6 66,24 46,25 60,13 100,67 26,30 -14,6 26,30 27,12 13,0 40,18 66,31 -13,13 86,37 53,12 20,6 53,24 40,18 34,0 73,30l73 43c206,84 292,84 472,127 139,36 305,30 464,24 233,-6 319,-30 505,-85 212,-60 571,-254 690,-436 40,-60 53,-24 60,-109 46,-6 60,-18 73,-54 7,-18 0,-18 13,-36l73 -115c40,-79 67,-194 87,-279 13,-48 20,-42 20,-103 0,-30 -14,-97 13,-103 -33,-97 -226,-321 -279,-351 -20,18 -27,12 -20,49 0,24 27,96 33,181 0,97 0,200 -13,279 -13,96 -53,193 -86,278 -20,36 -20,24 -33,49 -34,54 13,18 -54,90 -6,12 -20,31 -33,43 -99,97 13,18 -99,103l-273 205c-33,19 -19,7 -53,25 -93,60 -265,115 -378,145 -93,18 -226,12 -292,18 -146,18 -272,0 -432,-12 -20,-6 -46,-12 -66,-18 -106,-30 -53,0 -173,-49 0,0 0,0 -6,0 0,0 -7,0 -7,-6l-106 -30c-33,-12 -73,-24 -106,-42l-206 -115c-33,-25 20,12 -13,-12 -166,-103 -87,-43 -213,-158 -40,-36 -40,-30 -60,-36 -13,-12 -13,-6 -26,-24l-7 175z"/>
  <path class="fil9" d="M7076 7928c-33,24 -133,194 -153,254 20,18 73,133 153,230l46 67c14,6 14,12 20,12 7,6 13,18 20,24 27,24 53,43 80,67 119,85 6,24 159,103l13 6c0,0 7,6 7,6 73,36 60,12 60,42 0,0 0,6 0,6 79,6 126,43 152,49l193 42c7,0 53,6 66,12 113,30 219,24 359,12 40,0 179,-30 226,-54 6,-6 -7,0 26,-12 27,-6 33,0 60,-12 26,-6 20,-13 46,-25 93,-48 133,-42 206,-115 53,-48 60,-24 86,-66 47,-67 -6,-18 67,-85 86,-85 86,-139 113,-194l33 -115c26,-6 -27,0 6,0l27 0c0,-109 7,-163 0,-254 0,-85 -66,-266 -106,-327l-153 -194c-26,-30 -13,-30 -53,-54l20 -6c-27,-18 -13,-6 -53,-18 -120,-37 -299,-43 -418,-49l232 146c26,18 40,36 66,54 20,24 40,42 60,73 93,96 173,308 173,436 6,139 -73,339 -180,441l-13 13c-7,0 -7,0 -7,0 -112,84 -13,-19 -39,36 -7,12 0,6 -20,18l-153 85c-40,18 -73,24 -113,42 -60,24 -219,43 -292,49 -139,6 -292,-19 -418,-67 -86,-30 -206,-97 -279,-151l-113 -97c-86,-103 -192,-254 -192,-436l-20 6z"/>
  <path class="fil10" d="M10893 6015c20,18 40,18 33,54 -7,25 -20,37 -53,43 -47,12 -133,6 -179,0 -7,24 -7,18 -14,36 -33,6 -33,6 -66,0 27,49 60,91 93,158 33,84 40,109 -33,151 -33,-42 -47,-133 -86,-194 -127,-12 -193,36 -253,91 -33,36 -46,48 -79,85 -7,12 -20,30 -34,42 -26,36 -26,30 -46,42 -13,-54 -33,-72 -33,-133 -67,31 -93,18 -140,37l0 60c40,30 80,24 120,49l0 42c-67,48 -199,36 -286,36l7 -66c40,-25 46,-6 106,-55 7,-85 -33,-200 -99,-224 -146,-60 -352,133 -432,218 -46,55 -113,145 -172,158 -27,-43 -47,-49 -73,-85l126 -152c33,-30 26,-18 46,-48 -86,0 -172,-12 -259,-24l0 224c-79,-79 -73,-351 -318,-236 -87,42 -279,206 -299,284l252 55c86,12 173,12 259,30 133,18 677,12 810,-12 73,-6 186,-12 252,-24 159,-18 219,-37 359,-67 46,-6 66,0 99,-30 0,-79 -33,-133 40,-200 60,61 73,297 252,188 53,-43 199,-170 219,-267l-272 25 7 -79c79,-12 179,-30 265,-24l14 84c59,-12 139,-60 186,-90l146 -115c-120,-73 -239,-152 -220,-327 -19,12 -6,-6 -13,24 -20,42 7,42 -20,72 -26,31 -159,146 -212,164z"/>
  <path class="fil11" d="M10594 2897l27 67 113 266c-20,24 0,6 -40,12 33,24 20,31 53,31 20,0 53,-7 66,-13 73,-24 339,-90 359,-109l20 -799c0,-48 0,-90 0,-139l-14 -121c-13,-30 -53,-36 -86,-42 -33,-12 -53,-12 -73,-43l-226 -91c-26,-6 -40,-12 -66,-6l-60 6c-20,-18 13,7 -33,-18 -20,-12 -13,0 -27,-12 20,49 7,733 7,890 0,18 0,55 0,67 -7,66 -7,42 -20,54z"/>
  <path class="fil12" d="M7467 4756c-46,72 -139,163 -119,266 27,133 60,158 -27,279 -59,78 -106,139 -185,187 -120,73 -173,61 -319,31 0,24 7,60 20,84 6,31 13,37 20,85 -27,285 225,527 537,387 193,-84 332,-254 186,-429 -73,-97 -99,-73 -119,-121l133 0c-20,-19 -60,-19 -67,-55 -13,-127 113,-333 219,-430l73 -66 -33 -103c-33,-61 -40,-218 -40,-303 -139,42 -212,121 -279,188z"/>
  <path class="fil13" d="M8384 4853l59 48c67,55 113,91 87,170 -34,90 -107,151 -219,169 -312,42 -439,-212 -492,-266l-73 66c-106,97 -232,303 -219,430 7,36 47,36 67,55 252,54 405,326 551,326 126,-127 106,-278 192,-411 40,-67 93,-115 146,-164 27,-18 60,-42 100,-54 119,-49 113,-18 126,0 0,-6 0,-12 0,-12l40 -49c26,-12 26,-12 46,-24 73,-30 206,-73 272,-73 -46,-169 27,-217 27,-345 0,-18 -7,-18 -13,-30 -20,18 6,6 -40,12 -20,0 -33,0 -53,0 -153,18 -505,91 -604,152z"/>
  <path class="fil14" d="M13230 5658c39,242 -133,381 -372,399 -20,31 -27,31 -47,61 -20,24 -26,30 -46,54l-33 37c0,0 0,0 0,6 -7,0 -14,6 -14,6l-358 302c-53,37 -332,218 -405,218 -46,25 -86,79 -219,158 -385,218 -631,109 -949,60 26,19 212,97 265,127 80,43 186,122 252,152l0 -24c47,-6 306,-91 372,-115 179,-49 478,-182 644,-261l412 -254c0,0 6,-6 13,-12l86 -67c113,-84 146,-133 239,-224 73,-66 87,-90 146,-169l93 -152c133,-260 106,-387 126,-441 -26,-43 -79,-61 -132,-85 -47,-24 -113,-55 -166,-61 33,97 66,158 93,285z"/>
  <path class="fil15" d="M12698 3103c14,30 60,97 93,115 34,42 54,73 87,121 40,-12 79,-48 126,-79 199,-109 405,-109 465,-127l19 -18c0,-6 7,-6 7,-6 13,-12 7,-6 20,-12l0 -533c-7,-6 -7,-6 -20,-18l-166 -73c-146,-72 -484,-218 -617,-254 20,139 6,587 6,793 0,109 0,85 -20,91z"/>
  <path class="fil16" d="M6824 8963c-7,67 26,212 73,254 13,-36 53,0 73,13l298 145c365,127 571,181 996,175 100,0 199,0 279,-18 106,-24 113,-18 246,-54 205,-61 411,-164 584,-279l278 -248c34,-42 14,-36 60,-91 20,-18 80,-48 93,-139 13,-54 27,-42 47,-91 6,-18 13,-42 20,-54 26,-55 39,-18 46,-97 7,-49 0,-73 27,-121 -27,-73 -87,-267 -133,-291 -27,6 -13,73 -13,103 0,61 -7,55 -20,103 -20,85 -47,200 -87,279l-73 115c-13,18 -6,18 -13,36 -13,36 -27,48 -73,54 -7,85 -20,49 -60,109 -119,182 -478,376 -690,436 -186,55 -272,79 -505,85 -159,6 -325,12 -464,-24 -180,-43 -266,-43 -472,-127l-73 -43c-39,-30 -33,-12 -73,-30 -33,-18 0,-12 -53,-24 -99,-24 -20,-6 -86,-37 -27,-18 -13,-6 -40,-18 -40,-24 0,0 -26,-30 -40,-54 -54,-42 -100,-67 -33,-18 -27,-42 -66,-24z"/>
  <path class="fil17" d="M9744 5004c60,-24 180,30 233,48 33,12 46,12 73,25 206,103 152,103 245,157l-6 18c20,30 86,79 126,121 146,164 99,382 239,478 179,-30 272,-260 551,-326l46 -25c7,0 20,0 34,0 0,-78 -14,-133 -27,-199l-33 -67c0,0 -7,-12 -7,-12 -33,-67 -99,-145 -146,-194 -66,-60 -80,-54 -113,-109 -33,37 -46,85 -79,127 -34,43 -60,73 -100,97 -325,248 -684,-30 -518,-194l106 -96 -325 -97c-53,-12 -305,-73 -345,-49 0,97 46,170 46,297z"/>
  <path class="fil13" d="M8762 2461c0,-393 485,-653 863,-502 66,30 113,60 166,103l80 85c0,6 6,18 13,24 6,12 13,30 20,42 86,188 66,388 -87,545 -385,406 -1055,176 -1055,-297zm451 563l140 0 398 12c13,-24 -20,-6 47,-54l258 -272c20,-43 34,-67 47,-122 26,-96 53,-175 26,-278 -13,-55 -33,-85 -33,-133 0,-6 0,-6 0,-6l-6 -12c-34,-61 -60,-61 -93,-121 -20,-13 -7,-13 -27,0 -33,0 -33,12 -80,-37 -205,-200 -172,-236 -557,-236 -193,0 -365,85 -498,188l-86 85c0,6 0,6 -7,12 -126,139 -186,327 -153,514 20,121 80,248 173,339l119 91c0,6 7,6 7,6 120,79 186,-6 325,24z"/>
  <path class="fil18" d="M8988 2449c0,-72 46,-169 113,-224l26 -24c0,-6 7,-6 7,-6l13 -12c133,-91 365,-85 485,24 26,30 46,55 66,85 20,36 27,60 27,115 0,115 -7,139 -74,224l-33 36c-119,97 -298,127 -438,67 -6,-6 -40,-24 -46,-31l-47 -36c-60,-54 -99,-133 -99,-218zm-226 12c0,473 670,703 1055,297 153,-157 173,-357 87,-545 -7,-12 -14,-30 -20,-42 -7,-6 -13,-18 -13,-24l-80 -85c-53,-43 -100,-73 -166,-103 -378,-151 -863,109 -863,502z"/>
  <path class="fil19" d="M8005 8225c-146,0 -259,-73 -325,-182l-33 -85c0,-6 0,-6 0,-6 -7,-6 -7,-6 -7,-12l-7 -24c-19,-151 246,-369 538,-224l120 97c132,169 26,266 13,308l-7 37c-6,6 -6,6 -13,12 -86,79 -173,79 -279,79zm-611 -339l27 133c0,0 0,6 0,6l100 163c73,73 112,103 205,152 120,60 180,72 339,72 179,0 133,6 246,-42 86,-36 33,-18 86,-49 40,-18 40,-6 93,-78l40 -55c66,-97 79,-230 39,-339 -26,-66 -66,-157 -126,-200l-40 -42c-66,-73 -385,-206 -584,-145 -126,36 -152,42 -252,115 -46,30 -33,42 -53,66 -60,67 -33,-24 -93,152 -13,36 -27,42 -27,91z"/>
  <g id="_429153848">
   <path class="fil20" d="M14843 11373c113,-109 239,-485 252,-684 -80,-55 -146,-109 -232,-176 -239,-170 -478,-303 -751,-436 -942,-448 -2157,-708 -3232,-799 -193,-12 -585,-54 -764,-30 93,6 584,121 710,145 664,151 1395,351 2005,587 664,261 1408,630 1832,1150 80,91 100,140 160,218l20 25z"/>
   <g>
    <path class="fil21" d="M10269 16325l-7 -497c160,-12 445,-12 591,6 186,12 345,67 345,242 -6,85 -66,146 -113,176 -152,85 -637,79 -816,73zm1162 369c159,-12 365,-91 471,-157 478,-303 411,-921 -126,-1108 -332,-115 -837,-91 -1215,-91 -312,0 -1049,-12 -1308,0l0 2434 1009 0 0 -987c179,-24 332,24 425,109 47,48 372,502 445,593 20,30 186,279 226,285l1115 0c-20,-61 -166,-255 -213,-315 -73,-103 -146,-206 -219,-315 -93,-133 -146,-182 -252,-279 -159,-139 -259,-115 -358,-169z"/>
    <path class="fil21" d="M6691 15889c650,0 982,12 989,666 0,684 -312,660 -989,660l0 -1326zm-1016 1877c100,18 418,6 544,6 492,0 1109,24 1567,-67 1095,-212 1062,-1465 671,-1925 -425,-491 -1036,-442 -1693,-442 -160,0 -1003,-12 -1089,0l0 2428z"/>
    <path class="fil21" d="M13847 15889c650,-12 976,24 982,666 7,672 -305,672 -989,660l7 -1326zm-1016 1883c365,0 730,0 1096,0 630,0 1274,24 1686,-454 172,-194 239,-448 239,-763 0,-624 -352,-1048 -910,-1163 -332,-72 -683,-54 -1029,-54 -358,0 -723,-6 -1088,0l6 2434z"/>
    <path class="fil21" d="M15095 10689c-13,199 -139,575 -252,684 -87,187 -419,460 -611,599 -1022,745 -2961,1144 -4269,1350l-650 97c-53,12 -146,18 -186,36l-26 6c557,6 1208,-48 1752,-109 1248,-133 2861,-430 3910,-1077l266 -176c73,-66 225,-163 345,-309 53,-60 99,-103 152,-181 34,-43 100,-158 133,-194 13,-61 60,-127 86,-200 80,-212 113,-466 87,-690 -146,-1314 -1992,-2034 -3233,-2367 -418,-109 -1547,-351 -1952,-333 405,73 1096,254 1494,369 717,218 1347,454 1945,836 126,78 411,290 511,399 139,152 272,303 378,527 87,200 166,509 120,733z"/>
    <path class="fil20" d="M15029 12099c-20,1199 -1448,1853 -2576,2210 -989,315 -1965,502 -3014,666l-1075 157c438,30 1009,-6 1447,-30 1261,-67 2549,-248 3697,-630 359,-121 711,-272 1003,-436 610,-339 1155,-805 1294,-1489 73,-345 20,-860 -146,-1132 -33,36 -99,151 -133,194 -53,78 -99,121 -152,181 -120,146 -272,243 -345,309z"/>
    <path class="fil21" d="M14112 18183l107 327 -219 0 112 -327zm-1261 -66c113,0 299,-25 292,97 -6,115 -172,96 -292,96l0 -193zm372 345c53,-31 99,-31 146,-73 133,-103 126,-333 -20,-412 -100,-60 -259,-54 -392,-54 -126,0 -305,-6 -424,6l0 944 318 0 0 -381c140,0 153,79 206,163 27,49 106,200 146,218l677 0 47 -157 365 6 46 151 339 -6 -292 -708c-14,-36 -73,-224 -113,-236l-332 6 -385 938c-33,-30 -53,-78 -73,-121 -80,-127 -120,-236 -259,-284z"/>
    <path class="fil21" d="M10076 18873l312 0 173 -587c40,49 166,497 186,587l318 0 226 -950 -285 0c-47,18 -80,436 -126,515 -54,-91 -127,-497 -180,-515l-265 0c-33,18 -27,18 -33,60l-60 200c-27,85 -60,176 -80,261 -53,-91 -73,-388 -119,-521l-299 6 232 944z"/>
    <path class="fil21" d="M15082 18371c26,12 0,0 20,18 53,42 338,478 378,484l292 0 -7 -950 -292 0c-20,79 0,406 -6,515 -40,-31 -160,-206 -199,-261l-147 -194c-59,-84 -59,-60 -345,-60l0 950 306 -6 0 -496z"/>
    <path class="fil21" d="M7043 18129l537 -6 0 -200 -849 0c-27,79 -7,811 -7,950 153,0 770,6 870,-6l0 -205 -551 -7 0 -181 498 -6 0 -188 -498 -6 0 -145z"/>
    <path class="fil21" d="M7713 18559c-46,417 870,460 936,48 47,-345 -445,-345 -558,-393 -112,-55 0,-176 147,-116 59,25 46,55 79,109l292 -18c14,-218 -232,-290 -478,-278 -239,12 -438,139 -371,351 59,188 292,176 497,254 133,49 93,176 -39,188 -173,12 -160,-79 -213,-164l-292 19z"/>
    <path class="fil21" d="M9160 18510c14,-60 80,-284 113,-327l106 327 -219 0zm-139 363c26,-12 13,19 40,-78 13,-25 20,-49 26,-79l359 0 59 157 332 0c-13,-36 -365,-938 -398,-950l-338 6 -386 944 306 0z"/>
    <path class="fil21" d="M11749 18510c0,-54 53,-181 73,-248l40 -73 100 321 -213 0zm-79 206l365 0 46 157 339 0c-47,-151 -140,-333 -199,-484l-147 -357c-53,-145 0,-109 -391,-103l-385 944 325 0 47 -157z"/>
    <path class="fil21" d="M5994 18117c119,0 252,-12 245,109 0,109 -126,103 -245,103l0 -212zm0 405c172,-6 338,18 451,-72 146,-115 219,-521 -252,-527 -159,0 -359,-6 -518,6l0 944 319 0 0 -351z"/>
   </g>
  </g>
  <path class="fil18" d="M8291 5615c33,49 46,67 79,103 7,0 7,0 7,6 86,73 192,121 292,170 226,91 524,109 770,109 133,0 398,-36 505,-73l99 -36c106,-36 166,-67 252,-127 60,-43 87,-67 127,-121 46,-61 53,-85 46,-140 -13,-78 -179,-266 -339,-284 27,60 87,109 100,224 7,103 -33,175 -86,230 -40,48 -120,103 -213,115 -139,24 -172,-24 -259,-55 -13,25 -6,19 -46,31l-232 18c-54,0 -233,-6 -279,-18 -33,-12 0,0 -27,-12 -99,30 -133,66 -272,24 -73,-24 -146,-79 -186,-127 -146,-182 0,-351 33,-430 -205,24 -332,224 -371,393z"/>
  <path class="fil22" d="M10362 6869c60,18 245,36 332,48 352,67 604,163 929,18 259,-121 458,-309 518,-563 13,-73 40,-236 -13,-297 0,67 -67,116 -146,170l-193 139c0,0 -7,0 -7,6 -6,0 -6,0 -6,0l-339 182 -537 188c-220,60 -306,84 -538,109z"/>
  <path class="fil23" d="M6810 8552l0 302 7 -175c13,18 13,12 26,24 20,6 20,0 60,36 126,115 47,55 213,158 33,24 -20,-13 13,12l206 115c33,18 73,30 106,42l106 30c0,6 7,6 7,6 6,0 6,0 6,0 120,49 67,19 173,49 20,6 46,12 66,18 160,12 286,30 432,12 66,-6 199,0 292,-18 113,-30 285,-85 378,-145 34,-18 20,-6 53,-25l273 -205c112,-85 0,-6 99,-103 13,-12 27,-31 33,-43 67,-72 20,-36 54,-90 13,-25 13,-13 33,-49 33,-85 73,-182 86,-278 13,-79 13,-182 13,-279 -6,-85 -33,-157 -33,-181 -7,-37 0,-31 20,-49 -27,-48 -73,-73 -126,-109 -20,-18 -47,-36 -73,-54 -33,-19 -40,-31 -73,-37 -27,6 -13,0 -27,12 126,128 199,582 120,745 -27,61 -40,115 -67,176 -39,84 -73,90 -99,133 -27,36 -7,42 -47,72l-39 25c0,6 -27,30 -27,30 -86,103 -80,73 -139,97 13,36 0,12 19,18 7,0 20,0 20,0 -278,169 -511,254 -863,254 -59,0 -132,-6 -179,-12 -73,-6 -86,-12 -153,-24 -119,-24 -185,-49 -292,-85l-139 -54 -266 -188c-99,-85 27,6 -73,-61 -13,-6 -6,-6 -26,-18 -13,-6 0,0 -13,-6 -67,-42 13,18 -87,-72 -6,0 -13,-25 -53,-43 0,79 7,6 -20,37z"/>
  <path class="fil24" d="M9273 1275c33,60 13,266 13,339 -66,6 -46,12 -99,-12 -13,12 0,6 -27,12 -6,0 -33,6 -40,6 -33,0 -66,6 -73,6 40,12 93,0 133,0l-20 18c-33,42 -33,24 -73,61l-179 127c-133,84 -73,60 -173,145l-132 121c-20,30 -14,30 -40,61l-86 115c-47,54 -153,205 -166,260l26 151c13,-36 -7,0 7,-24 0,61 -7,67 20,121l99 176c0,0 0,0 0,6l40 48c20,12 13,6 20,24 53,79 27,43 133,67 146,-12 325,-54 471,-48 0,0 7,-6 7,-6l33 -7c13,0 33,0 53,0l-7 -18c-139,-30 -205,55 -325,-24 0,0 -7,0 -7,-6l-119 -91c-93,-91 -153,-218 -173,-339 -33,-187 27,-375 153,-514 7,-6 7,-6 7,-12l86 -85c133,-103 305,-188 498,-188 385,0 352,36 557,236 47,49 47,37 80,37 -133,-164 -259,-243 -305,-303 -33,-43 -27,-24 -53,-49l-60 -66c80,6 179,18 252,30 60,12 126,42 186,42 100,31 199,55 279,85 40,6 66,18 86,31 27,6 60,18 86,24 54,18 107,42 166,54 14,12 7,0 27,12 46,25 13,0 33,18l60 -6c0,-6 -7,-6 -7,-12 -79,-54 -445,-151 -537,-181 -40,-12 -67,-18 -100,-31l-100 -30c127,0 233,6 346,18l239 31c86,6 53,12 66,-6 0,-7 7,-7 13,-7l-551 -48c-99,-6 -478,-6 -557,-36l-60 -6 0 -224c13,-12 -27,-12 33,-12 -66,-73 -99,-212 -146,-261 -33,24 -73,121 -93,170z"/>
  <path class="fil25" d="M8018 7323c34,42 147,30 220,36 19,36 -40,6 39,42l73 43c87,42 40,-12 113,48 27,30 53,30 73,55l93 121c47,60 73,109 93,187 33,103 13,249 -33,321 -27,43 -13,0 -27,43 -39,109 14,6 -66,115 -53,78 -106,109 -193,145 -6,6 -13,6 -19,12 0,0 -7,0 -7,6 -40,30 0,24 -86,36 -107,19 -332,19 -438,-6 -140,-30 -27,0 -160,-54 -26,-6 -60,-24 -86,-43 -27,-12 -20,-12 -47,-24 -59,-36 -212,-163 -219,-230 -6,-42 27,6 -20,-54 -39,-49 -99,-321 -19,-406l-14 -18c-46,24 -186,163 -212,230l20 -6c0,182 106,333 192,436l113 97c73,54 193,121 279,151 126,48 279,73 418,67 73,-6 232,-25 292,-49 40,-18 73,-24 113,-42l153 -85c20,-12 13,-6 20,-18 26,-55 -73,48 39,-36 0,0 0,0 7,0l13 -13c107,-102 186,-302 180,-441 0,-128 -80,-340 -173,-436 -20,-31 -40,-49 -60,-73 -26,-18 -40,-36 -66,-54l-232 -146c-127,0 -246,18 -366,43z"/>
  <path class="fil12" d="M10986 4804l-27 115c33,55 47,49 113,109 47,49 113,127 146,194 0,0 7,12 7,12l33 67c13,66 27,121 27,199 -14,0 -27,0 -34,0l-46 25 126 0c-27,66 -226,133 -166,333 27,90 173,224 285,230 34,-31 54,-37 120,-103 66,-73 60,-61 119,-146 7,0 7,-6 7,-6 0,0 7,-6 7,-6 6,-12 13,-18 20,-30l53 -121c6,-12 6,-12 13,-24 27,-73 7,-67 47,-109 -180,6 -279,-91 -352,-176 -107,-127 -126,-169 -73,-357 13,-91 -93,-218 -140,-272 -40,-43 -159,-152 -259,-164l-26 230z"/>
  <path class="fil26" d="M6153 5385c73,55 126,182 139,297 7,67 0,127 -26,182 -27,66 -60,84 -80,133 40,0 27,12 47,48 53,73 186,206 265,261 27,18 33,24 60,48 33,30 27,24 66,36 -20,-157 -13,-260 40,-411 20,-55 113,-279 193,-291 -7,-48 -14,-54 -20,-85 -13,-24 -20,-60 -20,-84 -139,-67 -186,-115 -279,-200 -40,-43 -73,-79 -126,-109 -46,-30 -139,-49 -166,-73 -133,-6 -186,-36 -272,43 26,48 153,127 179,205z"/>
  <path class="fil27" d="M8403 6869c-66,-13 -92,6 -152,-13 -153,-36 -365,-72 -505,-121l-232 -78c-33,-12 -66,-25 -106,-43l-219 -97c-34,-18 -67,-36 -100,-54 -113,-67 -159,-85 -272,-170l-93 -72c-33,-24 -40,-43 -86,-67 -53,400 259,678 551,787 212,85 391,79 624,37l590 -109z"/>
  <path class="fil28" d="M7394 7886c0,-49 14,-55 27,-91 60,-176 33,-85 93,-152 20,-24 7,-36 53,-66 100,-73 126,-79 252,-115 199,-61 518,72 584,145l40 42c60,43 100,134 126,200 40,109 27,242 -39,339l-40 55c-53,72 -53,60 -93,78 -53,31 0,13 -86,49 -113,48 -67,42 -246,42 -159,0 -219,-12 -339,-72 -93,-49 -132,-79 -205,-152l-100 -163c0,0 0,-6 0,-6l-27 -133zm-106 -188l14 18c-80,85 -20,357 19,406 47,60 14,12 20,54 7,67 160,194 219,230 27,12 20,12 47,24 26,19 60,37 86,43 133,54 20,24 160,54 106,25 331,25 438,6 86,-12 46,-6 86,-36 0,-6 7,-6 7,-6 6,-6 13,-6 19,-12 87,-36 140,-67 193,-145 80,-109 27,-6 66,-115 14,-43 0,0 27,-43 46,-72 66,-218 33,-321 -20,-78 -46,-127 -93,-187l-93 -121c-20,-25 -46,-25 -73,-55 -73,-60 -26,-6 -113,-48l-73 -43c-79,-36 -20,-6 -39,-42 -73,-6 -186,6 -220,-36 -192,30 -657,248 -730,375z"/>
  <path class="fil29" d="M7494 2110c0,6 0,12 0,12 0,6 0,6 0,12 0,0 0,6 0,13l-7 926c7,24 0,12 7,24l13 24c27,12 392,121 458,127 -26,-36 7,-6 -33,-30 -13,-6 -20,-6 -40,-6 -20,-103 0,-902 -6,-1132 0,-151 6,-79 53,-151 -60,24 -418,139 -445,181z"/>
  <path class="fil30" d="M5522 2413c-26,60 -13,617 -13,751l-26 0c33,30 126,48 192,78 73,31 93,67 153,103 26,-24 60,-72 79,-103 14,-54 80,-91 107,-139 -14,-6 -20,0 -20,-48 -14,-128 0,-793 6,-830 -73,12 -438,158 -478,188z"/>
  <path class="fil31" d="M9651 5167c0,67 -86,176 -92,291 -7,133 73,206 112,278 87,31 120,79 259,55 93,-12 173,-67 213,-115 53,-55 93,-127 86,-230 -13,-115 -73,-164 -100,-224 160,18 326,206 339,284 53,79 33,230 179,370 206,-12 339,-351 638,-333 -54,66 -113,78 -147,212 -19,175 100,254 220,327 338,145 590,-37 604,-352 59,49 166,249 166,345 53,61 26,224 13,297 -60,254 -259,442 -518,563 -325,145 -577,49 -929,-18 -87,-12 -272,-30 -332,-48 -126,18 -246,-7 -392,24 -66,12 -119,30 -172,48 -54,18 -100,49 -153,61 -27,30 -100,66 -140,97 -46,42 -86,84 -126,109 -53,-19 -86,-73 -126,-109 -33,-25 -119,-73 -139,-97 -40,-6 -33,-12 -73,-31 -266,-127 -478,-72 -638,-102l-590 109c-233,42 -412,48 -624,-37 -292,-109 -604,-387 -551,-787 26,-151 106,-333 192,-424 13,134 47,224 120,297 66,67 179,115 325,103 93,-12 173,-48 232,-91 27,-18 67,-54 87,-79 20,-24 39,-72 66,-102 -7,-79 7,-115 -33,-188 -40,-73 -73,-67 -113,-133 159,6 259,78 332,151 73,61 199,170 299,188 79,-61 106,-170 146,-261 39,-169 166,-369 371,-393 -33,79 -179,248 -33,430 40,48 113,103 186,127 139,42 173,6 272,-24 73,-61 146,-146 153,-279 0,-133 -100,-242 -100,-315 -53,-48 -66,-157 -66,-236 13,-97 53,-248 106,-327l219 -429 226 448c40,54 133,332 86,387 0,54 -20,133 -60,163zm-338 -908c0,43 -86,188 -106,236 -20,43 -87,206 -113,224 0,128 -73,176 -27,345 40,122 133,255 146,382 34,351 -424,448 -590,157 -87,-151 13,-351 86,-381 -13,-18 -7,-49 -126,0 -40,12 -73,36 -100,54 -53,49 -106,97 -146,164 -86,133 -66,284 -192,411 -146,0 -299,-272 -551,-326l-133 0c20,48 46,24 119,121 146,175 7,345 -186,429 -312,140 -564,-102 -537,-387 -80,12 -173,236 -193,291 -53,151 -60,254 -40,411 93,242 193,388 439,515 318,169 458,121 829,79 359,-61 797,-194 1215,48 140,79 226,182 272,206 173,-145 292,-260 578,-321 318,-67 524,-6 830,42 318,49 564,158 949,-60 133,-79 173,-133 219,-158 27,-42 60,-66 93,-115 26,-36 46,-78 73,-121 46,-109 60,-212 53,-333 -13,-151 -60,-224 -113,-345 -33,-36 -66,-121 -113,-139 -20,48 -6,133 -33,194 -86,242 -391,272 -465,206 -112,-6 -258,-140 -285,-230 -60,-200 139,-267 166,-333l-126 0c-279,66 -372,296 -551,326 -140,-96 -93,-314 -239,-478 -40,-42 -106,-91 -126,-121 -67,-12 -93,-60 -199,-54 26,60 192,212 79,411 -172,303 -664,170 -584,-205 33,-140 120,-249 159,-400 0,-127 -46,-200 -46,-297 -13,-12 -193,-387 -199,-405 -40,-37 -53,-103 -73,-140 -33,-48 6,-12 -40,-36 -7,30 -20,49 -27,73l-46 60z"/>
  <path class="fil32" d="M8450 4411c7,24 7,6 0,18 -40,6 -166,36 -206,48l-146 49c-40,6 27,18 -46,0 33,133 225,242 312,321l20 6c99,-61 451,-134 604,-152 20,0 33,0 53,0 46,-6 20,6 40,-12 6,12 13,12 13,30 26,-18 93,-181 113,-224 20,-48 106,-193 106,-236 -33,-18 -286,6 -359,6l-6 -24c-27,49 -20,85 -67,127 -26,37 -59,61 -112,79 -146,54 -219,12 -319,-36z"/>
  <path class="fil33" d="M10289 5252l6 -18c-93,-54 -39,-54 -245,-157 -27,-13 -40,-13 -73,-25 -53,-18 -173,-72 -233,-48 -39,151 -126,260 -159,400 -80,375 412,508 584,205 113,-199 -53,-351 -79,-411 106,-6 132,42 199,54z"/>
  <path class="fil34" d="M8988 2449c0,85 39,164 99,218l47 36c6,7 40,25 46,31 140,60 319,30 438,-67l33 -36c67,-85 74,-109 74,-224 0,-55 -7,-79 -27,-115 -20,-30 -40,-55 -66,-85 -120,-109 -352,-115 -485,-24l-13 12c0,0 -7,0 -7,6l-26 24c-67,55 -113,152 -113,224z"/>
  <path class="fil32" d="M9698 4707c40,-24 292,37 345,49l325 97c34,-13 67,-43 93,-61 80,-60 239,-175 253,-315 -20,12 -14,12 -34,18 -33,-24 -46,-24 -92,-36 -14,0 -20,0 -47,-6l-133 -36c-46,-12 -59,-6 -73,-37 -79,49 -139,115 -298,85 -140,-30 -153,-79 -220,-163 -19,18 -126,6 -159,0 -40,0 -113,-18 -159,0 6,18 186,393 199,405z"/>
  <path class="fil29" d="M6419 2080l-14 85c0,24 0,54 0,84l0 339c0,43 -20,122 14,158l79 -55c7,-24 -6,0 7,-18 20,-24 7,-6 26,-24 20,-12 34,-24 54,-36 93,-67 205,-152 318,-200l100 -67c33,-18 93,-36 119,-54 -40,-24 -13,12 -26,-43 -7,-60 6,-326 13,-357 -119,31 -631,152 -690,188z"/>
  <path class="fil17" d="M8052 1874c-20,24 -34,24 -60,36 -27,6 -13,0 -33,13 -33,12 6,0 -20,6 -47,72 -53,0 -53,151 6,230 -14,1029 6,1132 20,0 27,0 40,6 40,24 7,-6 33,30 0,0 -33,18 14,0 0,0 0,0 6,0 0,0 7,-6 7,-6l106 -254 67 -176 26 -72c-26,-37 -7,-158 -7,-218 0,-73 0,-145 0,-224 0,-151 7,-315 -6,-466l-126 42z"/>
  <path class="fil35" d="M11172 3151c46,-6 325,-66 358,-72l7 -30c13,-37 13,-697 0,-787 -7,-13 6,6 -13,-13l-346 -157 14 121c0,49 0,91 0,139l-20 799z"/>
  <path class="fil36" d="M8709 5222c-73,30 -173,230 -86,381 166,291 624,194 590,-157 -13,-127 -106,-260 -146,-382 -66,0 -199,43 -272,73 -20,12 -20,12 -46,24l-40 49c0,0 0,6 0,12z"/>
  <path class="fil35" d="M6000 2225c-6,37 -20,702 -6,830 0,48 6,42 20,48 13,-24 159,-145 199,-169 40,-43 60,-49 99,-91 54,-49 87,-31 107,-97 -34,-36 -14,-115 -14,-158l0 -339c0,-30 0,-60 0,-84l14 -85c-73,18 -385,109 -419,145z"/>
  <path class="fil10" d="M7275 6130c-7,6 -7,6 -7,6 0,6 -6,6 -6,12 0,0 -7,6 -14,6l326 188c40,24 79,36 119,60 7,-12 13,-6 27,-12 6,-42 26,-103 53,-127 46,103 33,188 113,273 139,12 239,-37 318,-103 40,-37 67,-61 113,-103 13,-12 86,-91 100,-109 -40,-12 -73,0 -53,-43 -67,37 -93,79 -160,109 -26,-42 -33,-60 -39,-109 -27,6 -14,0 -34,-6 -26,-6 -26,-6 -40,-18 -33,-12 -39,-18 -73,-30 -66,-30 -205,-115 -265,-164 -80,-54 -93,-54 -93,-102 -27,30 -46,78 -66,102 -20,25 -60,61 -87,79 -59,43 -139,79 -232,91z"/>
  <path class="fil37" d="M11530 3079c146,-18 279,-18 425,-6l73 -18c0,-85 0,-176 0,-267 0,-91 13,-187 -20,-248 0,0 0,-6 0,-6 -46,-61 -272,-157 -312,-194l-159 -78c13,90 13,750 0,787l-7 30z"/>
  <path class="fil32" d="M11696 2340c40,37 266,133 312,194 53,30 100,67 153,103 40,30 99,85 146,109 6,-49 13,-581 -13,-666 -34,-24 -512,-151 -605,-170 20,37 -46,31 27,31l0 308c0,6 0,43 0,49 -7,60 7,24 -20,42z"/>
  <path class="fil35" d="M12307 2746c0,6 0,6 0,6 0,6 6,6 6,12 0,0 14,18 14,18 53,30 133,109 192,152 40,30 60,48 93,84 33,31 47,55 86,85 20,-6 20,18 20,-91 0,-206 14,-654 -6,-793 -53,-36 -326,-115 -418,-139 26,85 19,617 13,666z"/>
  <path class="fil26" d="M12260 5264c-26,55 -73,61 -79,97 -7,30 0,85 0,127 -7,91 -47,212 -87,297 -20,48 14,18 -33,42 53,121 100,194 113,345l239 -260c47,-73 7,-73 60,-73 -20,-115 -20,-175 20,-278 20,-67 73,-170 119,-194 27,-66 133,-133 166,-187 -60,-73 -172,-61 -279,-37 -132,37 -166,67 -239,121z"/>
  <path class="fil38" d="M8915 4047l6 0c87,0 133,-12 213,-12l451 0c93,0 133,12 226,12l33 -30c33,-54 60,-97 53,-169 0,-25 -7,-49 -20,-67 0,-6 -6,-18 -13,-24 -20,-30 -7,-12 -27,-24 -33,30 -159,0 -212,0l-491 0c-113,0 -199,30 -219,-6 0,0 -7,0 -7,6 0,6 -7,6 -7,6 -33,42 -53,97 -46,151 7,67 53,91 60,157z"/>
  <path class="fil39" d="M8417 6221c-14,18 -87,97 -100,109 -46,42 -73,66 -113,103 -79,66 -179,115 -318,103 -80,-85 -67,-170 -113,-273 -27,24 -47,85 -53,127 -14,152 86,327 252,309 139,-12 285,-151 372,-206 -33,91 -40,127 6,218 7,-6 100,-97 120,-103 20,-78 212,-242 299,-284 245,-115 239,157 318,236l0 -224c-53,-224 -225,-145 -338,-139 -73,-67 -53,-249 -173,-273 -20,139 53,212 93,315 -53,42 -179,151 -232,169 20,-66 66,-109 119,-133 -13,-42 -40,-84 -73,-103 -26,19 -46,37 -66,49z"/>
  <path class="fil40" d="M8264 1668c20,24 -26,31 66,31l186 -25c47,-6 186,-12 239,0 -13,-12 20,-12 -40,-6l-112 31c-47,6 -107,24 -153,36 -33,12 -252,79 -272,97 13,151 6,315 6,466 0,79 0,151 0,224 0,60 -19,181 7,218l120 -206c13,-55 119,-206 166,-260l86 -115c26,-31 20,-31 40,-61 -14,-36 -14,-321 0,-369 39,0 172,-37 219,-43l225 -60c-73,-6 -119,12 -185,18 -67,0 -133,0 -206,0 -120,0 -272,18 -392,24z"/>
  <path class="fil41" d="M12174 6172c7,121 -7,224 -53,333 -27,43 -47,85 -73,121 -33,49 -66,73 -93,115 73,0 352,-181 405,-218l358 -302c0,0 7,-6 14,-6 0,-6 0,-6 0,-6l33 -37c20,-24 26,-30 46,-54 20,-30 27,-30 47,-61 -120,6 -193,0 -266,-54 -86,-67 -73,-79 -119,-164 -53,0 -13,0 -60,73l-239 260z"/>
  <path class="fil42" d="M10275 2358c7,31 27,43 40,73 7,0 14,18 14,18l13 43c33,18 66,66 73,103 26,42 80,96 99,151l80 151c13,-12 13,12 20,-54 0,-12 0,-49 0,-67 0,-157 13,-841 -7,-890 -59,-12 -112,-36 -166,-54 -26,-6 -59,-18 -86,-24 -20,-13 -46,-25 -86,-31l6 581z"/>
  <path class="fil43" d="M7109 1892c-7,31 -20,297 -13,357 13,55 -14,19 26,43 27,-24 47,-30 80,-43 7,-6 0,-6 27,-18 6,-6 19,-12 33,-18l232 -103c27,-42 385,-157 445,-181 26,-6 -13,6 20,-6 20,-13 6,-7 33,-13 26,-12 40,-12 60,-36 -40,6 -34,12 -73,30l0 -169c33,6 93,-6 139,-18l113 -18c40,-19 -7,36 33,-25 -418,49 -650,103 -1029,182 -26,6 -113,18 -126,36z"/>
  <path class="fil44" d="M7202 2249l-7 636c0,176 -13,145 27,194l285 42 -13 -24c-7,-12 0,0 -7,-24l7 -926c0,-7 0,-13 0,-13 0,-6 0,-6 0,-12 0,0 0,-6 0,-12l-232 103c-14,6 -27,12 -33,18 -27,12 -20,12 -27,18z"/>
  <path class="fil34" d="M9140 5161c0,73 100,182 100,315 -7,133 -80,218 -153,279 27,12 -6,0 27,12 46,12 225,18 279,18l232 -18c40,-12 33,-6 46,-31 -39,-72 -119,-145 -112,-278 6,-115 92,-224 92,-291 -26,-54 -331,-36 -404,-36 -127,0 -100,18 -107,30z"/>
  <path class="fil45" d="M5091 2613c20,109 0,399 7,454 6,66 -14,24 26,42l-26 0c6,12 358,61 385,55l26 0c0,-134 -13,-691 13,-751 -79,24 -345,151 -431,200z"/>
  <path class="fil46" d="M5098 3109l26 0c-40,-18 -20,24 -26,-42 -7,-55 13,-345 -7,-454 -259,109 -584,314 -823,460 -67,42 -93,54 -120,91 160,-13 312,-31 465,-37 146,-12 358,0 485,-18z"/>
  <path class="fil30" d="M7122 2292c-26,18 -86,36 -119,54l-100 67c-6,36 -33,48 -60,54l0 582c67,6 206,-7 253,18l126 12c-40,-49 -27,-18 -27,-194l7 -636c-33,13 -53,19 -80,43z"/>
  <path class="fil13" d="M11019 2007c20,31 40,31 73,43 33,6 73,12 86,42l346 157c19,19 6,0 13,13l159 78c27,-18 13,18 20,-42 0,-6 0,-43 0,-49l0 -308c-73,0 -7,6 -27,-31 -53,-36 -743,-175 -896,-187 20,36 -33,6 53,30l173 30 0 224z"/>
  <path class="fil41" d="M13469 3133c152,-18 385,-30 531,-12l93 6c19,-72 0,-175 19,-260 -59,-42 -504,-279 -597,-303l0 533c-13,6 -7,0 -20,12 0,0 -7,0 -7,6l-19 18z"/>
  <path class="fil47" d="M7853 7837c59,-79 312,-48 331,91 20,188 -219,182 -312,103 -39,-30 -53,-55 -53,-115l34 -79zm152 388c106,0 193,0 279,-79 7,-6 7,-6 13,-12l7 -37c13,-42 119,-139 -13,-308l-120 -97c-292,-145 -557,73 -538,224l7 24c0,6 0,6 7,12 0,0 0,0 0,6l33 85c66,109 179,182 325,182z"/>
  <path class="fil38" d="M6498 2691l-13 12c-7,0 -7,0 -7,7 -6,0 -6,0 -6,0 -20,12 -20,-7 -33,36l0 345 59 12c180,-36 412,-42 598,-36 -47,-25 -186,-12 -253,-18l0 -582c27,-6 54,-18 60,-54 -113,48 -225,133 -318,200 -20,12 -34,24 -54,36 -19,18 -6,0 -26,24 -13,18 0,-6 -7,18z"/>
  <path class="fil48" d="M6246 5137c27,24 120,43 166,73 53,30 86,66 126,109 93,85 140,133 279,200 146,30 199,42 319,-31 79,-48 126,-109 185,-187 87,-121 54,-146 27,-279 -20,-103 73,-194 119,-266 -119,6 -86,72 -146,97 -46,18 0,0 -19,0 0,30 0,60 -7,90 -13,31 0,0 -13,19 -53,90 -40,211 -93,248 -20,24 0,0 -27,18l-66 54c0,6 -7,6 -7,6l-13 13c-33,24 -20,18 -47,48l-225 -6c6,-12 46,6 0,-18 -14,0 -73,-12 -87,-18 14,-31 -20,-19 40,-25 -60,-6 -226,-90 -232,-90 -47,-12 -60,0 -100,-19 -6,-18 14,-18 14,-18 -54,-18 -133,-6 -193,-18z"/>
  <path class="fil49" d="M5542 5585c-66,97 -53,460 405,472 146,6 153,-36 239,-60 20,-49 53,-67 80,-133 26,-55 33,-115 26,-182 -13,-115 -66,-242 -139,-297l-26 19c-7,108 19,272 -20,357 -47,103 -34,24 -120,115 -33,30 -26,30 -133,24 -46,-61 -6,-12 -66,-55l-20 -12c-33,-30 -46,-18 -66,-48 -34,-36 13,-12 -53,-61 -27,-18 -7,0 -20,-18 0,0 -14,-18 -20,-24 -40,-67 -47,-6 -67,-97z"/>
  <path class="fil50" d="M8921 4047l27 194 6 24c73,0 326,-24 359,-6l46 -60c7,-24 20,-43 27,-73 46,24 7,-12 40,36 20,37 33,103 73,140 46,-18 119,0 159,0 33,6 140,18 159,0 -13,-146 -6,-152 27,-285l-33 30c-93,0 -133,-12 -226,-12l-451 0c-80,0 -126,12 -213,12z"/>
  <path class="fil51" d="M11836 5543c-40,42 -20,36 -47,109 -7,12 -7,12 -13,24l-53 121c-7,12 -14,18 -20,30 0,0 -7,6 -7,6 0,0 0,6 -7,6 -59,85 -53,73 -119,146 -66,66 -86,72 -120,103 74,66 379,36 465,-206 27,-61 13,-146 33,-194 47,18 80,103 113,139 47,-24 13,6 33,-42 40,-85 80,-206 87,-297 0,-42 -7,-97 0,-127 -100,55 -186,164 -345,182z"/>
  <path class="fil52" d="M8337 4162c7,67 20,122 53,170 80,-36 106,18 286,-24 39,-12 46,0 86,-18 33,-13 60,-43 73,-67l20 -42c33,-49 13,12 33,-55 7,-24 13,-54 27,-79 -7,-66 -53,-90 -60,-157 -7,-54 13,-109 46,-151 0,0 7,0 7,-6 0,-6 7,-6 7,-6 13,-37 66,-97 86,-121 40,-37 60,-79 106,-103l106 -103 7 -170c-46,103 27,36 -100,115l-126 121c-66,55 -73,97 -86,115 -27,37 -46,12 -66,37 -20,24 0,18 -34,66l-26 55c-73,151 20,399 -193,423 -73,7 -172,0 -252,0z"/>
  <path class="fil11" d="M9751 3036c-13,19 27,19 -33,19l192 24c67,-24 113,18 239,-152 93,-121 160,-224 186,-381l7 -48c0,0 0,-6 0,-6l-13 -43c0,0 -7,-18 -14,-18 -13,-30 -33,-42 -40,-73 -46,-30 -112,-145 -179,-181 0,48 20,78 33,133 27,103 0,182 -26,278 -13,55 -27,79 -47,122l-258 272c-67,48 -34,30 -47,54z"/>
  <path class="fil53" d="M12473 5839c46,85 33,97 119,164 73,54 146,60 266,54 239,-18 411,-157 372,-399 -60,0 -40,18 -80,60l-100 97c-33,30 -26,30 -93,36l-6 49c-67,0 -80,12 -166,6 -33,-48 -27,-18 -73,-55 -100,-84 -146,-181 -113,-308 13,-67 7,-103 13,-176 -46,24 -99,127 -119,194 -40,103 -40,163 -20,278z"/>
  <path class="fil13" d="M9074 4925c93,0 219,-24 319,-18 93,0 205,18 312,18l6 79c47,-55 -46,-333 -86,-387 -86,-19 -126,-19 -226,-19 -73,0 -146,0 -219,0 -53,79 -93,230 -106,327z"/>
  <path class="fil53" d="M10368 4853l-106 96c-166,164 193,442 518,194 40,-24 66,-54 100,-97 33,-42 46,-90 79,-127l27 -115c-86,24 -106,49 -160,97 -26,18 -19,12 -33,36l-53 49c-86,72 -159,103 -252,-30 -27,-37 -27,-109 -27,-164 -26,18 -59,48 -93,61z"/>
  <path class="fil46" d="M8915 3727c20,36 106,6 219,6l491 0c53,0 179,30 212,0 -6,-43 -53,-97 -79,-121 -20,-25 -33,-37 -53,-55 -27,-30 -27,-36 -60,-54 -27,24 6,12 -60,18l-345 0c-126,0 -100,6 -133,-18 -46,24 -66,66 -106,103 -20,24 -73,84 -86,121z"/>
  <path class="fil39" d="M9346 6360c-20,30 -13,18 -46,48l-126 152c26,36 46,42 73,85 59,-13 126,-103 172,-158 80,-85 286,-278 432,-218 66,24 106,139 99,224 -60,49 -66,30 -106,55l-7 66c87,0 219,12 286,-36l0 -42c-40,-25 -80,-19 -120,-49l0 -60c-13,-164 -66,-352 -285,-297 -173,42 -339,218 -372,230z"/>
  <path class="fil53" d="M11836 5543c159,-18 245,-127 345,-182 6,-36 53,-42 79,-97 -199,0 -79,31 -219,67 -6,18 14,12 14,18 -34,0 -47,6 -67,6 -40,12 -166,55 -239,18l-60 -36c-92,-55 -172,-145 -199,-236 -13,-30 -26,-67 -46,-79 -67,-42 33,36 -33,-12 -53,188 -34,230 73,357 73,85 172,182 352,176z"/>
  <path class="fil53" d="M9844 4017c-33,133 -40,139 -27,285 67,84 80,133 220,163 159,30 219,-36 298,-85 20,-48 47,-66 67,-133 -47,18 -206,24 -292,-12 -34,-12 -93,-18 -120,-36 -40,-37 7,-24 -46,-73 -7,0 -14,0 -27,-12l0 -206c0,-6 0,-24 -7,-30 0,0 20,0 -13,-30 7,72 -20,115 -53,169z"/>
  <path class="fil54" d="M9074 4925c0,79 13,188 66,236 7,-12 -20,-30 107,-30 73,0 378,-18 404,36 40,-30 60,-109 60,-163l-6 -79c-107,0 -219,-18 -312,-18 -100,-6 -226,18 -319,18z"/>
  <path class="fil41" d="M11955 3073l332 36 33 -24 7 -303c0,0 -14,-18 -14,-18 0,-6 -6,-6 -6,-12 0,0 0,0 0,-6 -47,-24 -106,-79 -146,-109 -53,-36 -100,-73 -153,-103 0,0 0,6 0,6 33,61 20,157 20,248 0,91 0,182 0,267l-73 18z"/>
  <path class="fil55" d="M9997 2038c33,60 59,60 93,121l6 12c0,0 0,0 0,6 67,36 133,151 179,181l-6 -581c-80,-30 -179,-54 -279,-85l7 346z"/>
  <path class="fil56" d="M7786 4871l33 103c53,54 180,308 492,266 112,-18 185,-79 219,-169 26,-79 -20,-115 -87,-170l-59 -48 -20 -6c-14,18 -14,42 -14,72 0,43 0,55 -13,85 -7,6 -7,12 -13,18l-33 49c-14,18 -7,18 -7,18 -100,6 -106,30 -159,18 -60,-12 -93,-43 -133,-73 -106,-91 -66,-151 -206,-163z"/>
  <path class="fil55" d="M10727 1910c26,-6 40,0 66,6l226 91 0 -224 -173 -30c-86,-24 -33,6 -53,-30 -26,-24 -93,-18 -146,-31 -6,0 -13,0 -13,7 -13,18 20,12 -66,6l-239 -31c-113,-12 -219,-18 -346,-18l100 30c33,13 60,19 100,31 92,30 458,127 537,181 0,6 7,6 7,12z"/>
  <path class="fil39" d="M10501 6560c87,66 80,224 339,66 99,-60 206,-157 265,-260l-79 -79 -14 -84c-86,-6 -186,12 -265,24l-7 79 272 -25c-20,97 -166,224 -219,267 -179,109 -192,-127 -252,-188 -73,67 -40,121 -40,200z"/>
  <path class="fil46" d="M6419 2746c-20,66 -53,48 -107,97 -39,42 -59,48 -99,91 -40,24 -186,145 -199,169 -27,48 -93,85 -107,139 186,-24 399,-133 591,-139l-59 -12 0 -345c13,-43 13,-24 33,-36 0,0 0,0 6,0 0,-7 0,-7 7,-7l13 -12 -79 55z"/>
  <path class="fil36" d="M8603 2098l132 -121c100,-85 40,-61 173,-145l179 -127c40,-37 40,-19 73,-61l20 -18c-40,0 -93,12 -133,0l-225 60c-47,6 -180,43 -219,43 -14,48 -14,333 0,369z"/>
  <path class="fil50" d="M8191 2740l-26 72c19,49 -7,13 26,73l53 109c27,48 40,42 60,73 46,66 -20,30 73,84 60,13 206,-48 279,-48 -106,-24 -80,12 -133,-67 -7,-18 0,-12 -20,-24l-40 -48c0,-6 0,-6 0,-6l-99 -176c-27,-54 -20,-60 -20,-121 -14,24 6,-12 -7,24l-26 -151 -120 206z"/>
  <path class="fil57" d="M8052 4526c73,18 6,6 46,0l146 -49c40,-12 166,-42 206,-48 7,-12 7,6 0,-18 -7,-31 -40,-49 -60,-79 -33,-48 -46,-103 -53,-170l0 -42c-153,-6 -372,242 -285,406z"/>
  <path class="fil58" d="M9180 4598c73,0 146,0 219,0 100,0 140,0 226,19l-226 -448 -219 429z"/>
  <path class="fil6" d="M12287 3109l504 109c-33,-18 -79,-85 -93,-115 -39,-30 -53,-54 -86,-85 -33,-36 -53,-54 -93,-84 -59,-43 -139,-122 -192,-152l-7 303 -33 24z"/>
  <path class="fil51" d="M10402 4247c-20,67 -47,85 -67,133 14,31 27,25 73,37l133 36c27,6 33,6 47,6 46,12 59,12 92,36 20,-6 14,-6 34,-18 6,-103 -20,-175 -80,-236 -40,-42 -120,-121 -219,-127l-13 133z"/>
  <path class="fil59" d="M7819 7916c0,60 14,85 53,115 93,79 332,85 312,-103 -19,-139 -272,-170 -331,-91l-34 79z"/>
  <path class="fil39" d="M10143 6390c0,61 20,79 33,133 20,-12 20,-6 46,-42 14,-12 27,-30 34,-42 33,-37 46,-49 79,-85 60,-55 126,-103 253,-91 39,61 53,152 86,194 73,-42 66,-67 33,-151 -33,-67 -66,-109 -93,-158 -133,-18 -153,-36 -285,73 -40,30 -60,48 -100,91 -13,12 -27,24 -40,42 -26,24 -20,30 -46,36z"/>
  <path class="fil56" d="M8390 4332c20,30 53,48 60,79 100,48 173,90 319,36 53,-18 86,-42 112,-79 47,-42 40,-78 67,-127l-27 -194 -6 0c-14,25 -20,55 -27,79 -20,67 0,6 -33,55l-20 42c-13,24 -40,54 -73,67 -40,18 -47,6 -86,18 -180,42 -206,-12 -286,24z"/>
  <path class="fil34" d="M9970 2038c20,-13 7,-13 27,0l-7 -346c-60,0 -126,-30 -186,-42 -73,-12 -172,-24 -252,-30l60 66c26,25 20,6 53,49 46,60 172,139 305,303z"/>
  <path class="fil60" d="M9333 3297l-120 103 -106 103c33,24 7,18 133,18l345 0c66,-6 33,6 60,-18 -27,-43 -93,-79 -126,-121 -20,0 -14,6 -20,-13l-40 -36 -80 -67c-20,13 -26,19 -46,31z"/>
  <path class="fil12" d="M9910 3079l140 24c60,-12 93,12 166,-79 20,-24 26,-42 46,-66l53 -67c0,0 7,-6 7,-6l93 -194c13,-48 0,-54 0,-96 -7,-37 -40,-85 -73,-103 0,0 0,6 0,6l-7 48c-26,157 -93,260 -186,381 -126,170 -172,128 -239,152z"/>
  <path class="fil61" d="M10050 3103l212 42 33 -12c7,-48 34,-60 60,-91 33,-36 33,-60 60,-90 53,-85 80,-109 99,-206 -19,-55 -73,-109 -99,-151 0,42 13,48 0,96l-93 194c0,0 -7,6 -7,6l-53 67c-20,24 -26,42 -46,66 -73,91 -106,67 -166,79z"/>
  <path class="fil14" d="M14000 3121c66,-12 458,37 564,43 -33,-49 -166,-122 -226,-152 -73,-48 -146,-103 -226,-145 -19,85 0,188 -19,260l-93 -6z"/>
  <path class="fil22" d="M10262 3145l219 43 -13 -12c-13,-55 7,-12 66,-97 20,-30 47,-97 87,-115l-27 -67 -80 -151c-19,97 -46,121 -99,206 -27,30 -27,54 -60,90 -26,31 -53,43 -60,91l-33 12z"/>
  <path class="fil36" d="M8264 1668l0 6c-40,61 7,6 -33,25l-113 18c-46,12 -106,24 -139,18l0 169c39,-18 33,-24 73,-30l126 -42c20,-18 239,-85 272,-97 46,-12 106,-30 153,-36l112 -31c60,-6 27,-6 40,6 -53,-12 -192,-6 -239,0l-186 25c-92,0 -46,-7 -66,-31z"/>
  <path class="fil27" d="M9645 7002c-100,-6 -179,6 -266,12 -86,0 -166,-12 -265,-12 20,24 106,72 139,97 40,36 73,90 126,109 40,-25 80,-67 126,-109 40,-31 113,-67 140,-97z"/>
  <path class="fil41" d="M8098 2988c33,176 0,48 67,163 19,31 13,25 53,43 39,-6 126,-24 159,-43 -93,-54 -27,-18 -73,-84 -20,-31 -33,-25 -60,-73l-53 -109c-33,-60 -7,-24 -26,-73l-67 176z"/>
  <path class="fil62" d="M9333 3297c20,-12 26,-18 46,-31l80 67c-7,-103 -40,-188 -40,-278l86 -19 -6 333c6,19 0,13 20,13l0 -297 0 -43 199 13c60,0 20,0 33,-19l-398 -12c-27,25 20,6 -33,31l13 242z"/>
  <path class="fil60" d="M10481 3188l213 54c40,-6 20,12 40,-12l-113 -266c-40,18 -67,85 -87,115 -59,85 -79,42 -66,97l13 12z"/>
  <path class="fil27" d="M9187 1602c53,24 33,18 99,12 0,-73 20,-279 -13,-339 -7,85 -73,91 -113,139 -53,73 -40,151 27,188z"/>
  <path class="fil63" d="M9220 3230l-7 170 120 -103 -13 -242c53,-25 6,-6 33,-31l-140 0 7 18 0 188z"/>
  <path class="fil39" d="M8165 6178c6,49 13,67 39,109 67,-30 93,-72 160,-109 6,-24 33,-36 66,-48 -7,-61 -33,-91 -60,-121 -20,12 -86,66 -106,85 -40,36 -53,66 -99,84z"/>
  <path class="fil64" d="M9539 1608c33,-6 13,0 39,-12 40,-31 54,-128 0,-194 -33,-36 -19,-42 -66,-36 -60,0 -20,0 -33,12l0 224 60 6z"/>
  <path class="fil39" d="M10694 6112c46,6 132,12 179,0 33,-6 46,-18 53,-43 7,-36 -13,-36 -33,-54 -60,6 -120,6 -179,12 -40,6 -47,0 -53,36 -7,37 6,37 33,49z"/>
  <path class="fil65" d="M7992 3242l226 -48c-40,-18 -34,-12 -53,-43 -67,-115 -34,13 -67,-163l-106 254z"/>
  <path class="fil52" d="M9459 3333l40 36 6 -333 -86 19c0,90 33,175 40,278z"/>
 </g>
</svg>
