<?xml version="1.0" encoding="UTF-8"?>
<!DOCTYPE svg PUBLIC "-//W3C//DTD SVG 1.1//EN" "http://www.w3.org/Graphics/SVG/1.1/DTD/svg11.dtd">
<!-- Creator: CorelDRAW X7 -->
<svg xmlns="http://www.w3.org/2000/svg" xml:space="preserve" width="31.6357mm" height="31.6357mm" version="1.1" style="shape-rendering:geometricPrecision; text-rendering:geometricPrecision; image-rendering:optimizeQuality; fill-rule:evenodd; clip-rule:evenodd"
viewBox="0 0 316 316"
 xmlns:xlink="http://www.w3.org/1999/xlink">
 <defs>
  <style type="text/css">
   <![CDATA[
    .fil0 {fill:none}
    .fil1 {fill:#FEFEFE}
    .fil22 {fill:#1547A6}
    .fil40 {fill:#1F1A17}
    .fil32 {fill:#393834}
    .fil64 {fill:#53504B}
    .fil63 {fill:#9C9A97}
    .fil57 {fill:#C2C2C2}
    .fil54 {fill:#C6C5C5}
    .fil50 {fill:#CCCCCB}
    .fil49 {fill:#CFCECE}
    .fil53 {fill:#D9D9D9}
    .fil2 {fill:#E6E6E6}
    .fil65 {fill:#F5F1DA}
    .fil66 {fill:#F7CB1A}
    .fil25 {fill:#F7E497}
    .fil4 {fill:#F91C26}
    .fil17 {fill:#FA333C}
    .fil9 {fill:#FA4B53}
    .fil24 {fill:#FB646B}
    .fil8 {fill:#FB757B}
    .fil10 {fill:#FC8D92}
    .fil26 {fill:#FCA6A9}
    .fil29 {fill:#FCB6B9}
    .fil20 {fill:#FDCED0}
    .fil48 {fill:#FDDFE1}
    .fil12 {fill:#FDEB99}
    .fil6 {fill:#FDEDA5}
    .fil56 {fill:#FDF6D3}
    .fil3 {fill:#FECC02}
    .fil61 {fill:#FECF11}
    .fil15 {fill:#FED21C}
    .fil7 {fill:#FED323}
    .fil47 {fill:#FED52C}
    .fil42 {fill:#FED738}
    .fil23 {fill:#FED83C}
    .fil28 {fill:#FED942}
    .fil39 {fill:#FEDA46}
    .fil46 {fill:#FEDB49}
    .fil27 {fill:#FEDC51}
    .fil38 {fill:#FEDD56}
    .fil16 {fill:#FEDE5A}
    .fil5 {fill:#FEDE5D}
    .fil62 {fill:#FEDF62}
    .fil51 {fill:#FEE166}
    .fil52 {fill:#FEE16A}
    .fil58 {fill:#FEE26E}
    .fil45 {fill:#FEE479}
    .fil11 {fill:#FEE57E}
    .fil13 {fill:#FEE681}
    .fil59 {fill:#FEE78A}
    .fil33 {fill:#FEE88D}
    .fil30 {fill:#FEE991}
    .fil18 {fill:#FEEEAA}
    .fil14 {fill:#FEEFAD}
    .fil44 {fill:#FEF0B6}
    .fil43 {fill:#FEF1BA}
    .fil41 {fill:#FEF2C1}
    .fil19 {fill:#FEF3C5}
    .fil60 {fill:#FEF3F3}
    .fil55 {fill:#FEF4CB}
    .fil34 {fill:#FEF7DA}
    .fil35 {fill:#FEF9E7}
    .fil21 {fill:#FF861D}
    .fil31 {fill:#FFE061}
    .fil36 {fill:#FFE475}
    .fil37 {fill:#FFF8DD}
   ]]>
  </style>
 </defs>
 <g id="Layer_x0020_1">
  <metadata id="CorelCorpID_0Corel-Layer"/>
  <rect class="fil0" width="316" height="316"/>
  <g id="_470241864">
   <path class="fil1" d="M232 180c2,-2 4,-8 4,-11 -1,-1 -2,-2 -4,-3 -3,-2 -7,-5 -12,-7 -14,-7 -34,-11 -51,-12 -3,0 -9,-1 -12,-1 2,0 10,2 12,3 10,2 22,5 31,9 11,4 22,10 29,18 1,1 2,2 3,3l0 1z"/>
   <g>
    <path class="fil1" d="M160 258l0 -8c2,0 7,0 9,0 3,1 5,1 5,4 0,2 -1,3 -1,3 -3,1 -10,1 -13,1zm18 6c3,0 6,-1 8,-3 7,-4 6,-14 -2,-17 -6,-2 -14,-1 -20,-1 -5,0 -16,-1 -20,0l0 38 16 0 0 -16c2,0 5,1 6,2 1,1 6,8 7,10 1,0 3,4 4,4l18 0c-1,-1 -3,-4 -4,-5 -1,-2 -2,-3 -3,-5 -2,-2 -3,-3 -4,-4 -3,-3 -4,-2 -6,-3z"/>
    <path class="fil1" d="M103 251c10,0 16,0 16,11 0,11 -5,10 -16,10l0 -21zm-16 30c2,0 7,0 9,0 7,0 17,0 24,-1 18,-3 17,-23 11,-30 -7,-8 -16,-7 -27,-7 -2,0 -16,-1 -17,0l0 38z"/>
    <path class="fil1" d="M216 251c11,0 16,1 16,11 0,10 -5,10 -16,10l0 -21zm-16 30c6,0 12,0 18,0 9,0 20,0 26,-7 3,-3 4,-7 4,-12 0,-10 -6,-17 -14,-19 -6,-1 -11,0 -17,0 -5,0 -11,-1 -17,0l0 38z"/>
    <path class="fil1" d="M236 169c0,3 -2,9 -4,11 -1,3 -7,7 -10,9 -16,12 -46,18 -67,22l-10 1c-1,0 -3,0 -3,1l-1 0c9,0 19,-1 28,-2 20,-2 45,-7 62,-17l4 -3c1,-1 4,-2 5,-5 1,-1 2,-1 3,-2 0,-1 1,-3 2,-4 0,0 1,-2 1,-3 2,-3 2,-7 2,-11 -3,-20 -32,-32 -51,-37 -7,-2 -25,-6 -31,-5 6,1 17,4 23,6 12,3 22,7 31,13 2,1 7,4 8,6 2,2 4,5 6,8 1,4 3,8 2,12z"/>
    <path class="fil1" d="M235 191c0,19 -23,30 -41,35 -15,5 -31,8 -47,11l-17 2c6,1 16,0 22,0 20,-1 41,-4 59,-10 6,-2 11,-4 16,-7 9,-5 18,-13 20,-24 1,-5 1,-13 -2,-18 -1,1 -2,3 -2,4 -1,1 -2,1 -3,2 -1,3 -4,4 -5,5z"/>
    <path class="fil1" d="M220 288l2 5 -3 0 1 -5zm-19 -2c1,0 4,0 4,2 0,2 -3,2 -4,2l0 -4zm5 6c1,-1 2,-1 3,-1 2,-2 2,-5 -1,-7 -1,-1 -4,-1 -6,-1 -2,0 -5,0 -7,0l0 15 6 0 0 -6c2,0 2,2 3,3 0,1 1,3 2,3l11 0 1 -2 5 0 1 2 5 0 -4 -11c0,0 -1,-3 -2,-4l-5 0 -6 15c-1,0 -1,-1 -2,-2 -1,-2 -1,-3 -4,-4z"/>
    <path class="fil1" d="M157 298l5 0 2 -9c1,1 3,8 3,9l5 0 4 -15 -5 0c0,1 -1,7 -2,9 0,-2 -2,-8 -2,-9l-5 0c0,1 0,1 0,1l-1 4c-1,1 -1,2 -1,4 -1,-2 -2,-6 -2,-9l-5 0 4 15z"/>
    <path class="fil1" d="M236 290c0,1 0,0 0,1 1,0 5,7 6,7l5 0 0 -15 -5 0c0,2 0,7 0,9 -1,-1 -3,-4 -3,-5l-3 -3c-1,-1 -1,-1 -5,-1l0 15 5 0 0 -8z"/>
    <path class="fil1" d="M109 287l8 0 0 -4 -13 0c-1,2 0,13 0,15 2,0 12,1 13,0l0 -3 -8 0 0 -3 8 0 0 -3 -8 0 0 -2z"/>
    <path class="fil1" d="M119 293c0,7 14,8 15,1 1,-5 -7,-5 -9,-6 -2,-1 0,-3 3,-2 1,1 0,1 1,2l4 0c1,-4 -3,-5 -7,-5 -4,0 -7,2 -6,6 1,3 5,3 8,4 2,1 1,3 -1,3 -2,0 -2,-1 -3,-3l-5 0z"/>
    <path class="fil1" d="M142 293c0,-1 1,-5 2,-5l2 5 -4 0zm-2 5c0,0 0,1 1,-1 0,0 0,-1 0,-1l6 0 1 2 5 0c0,0 -6,-14 -6,-15l-6 0 -6 15 5 0z"/>
    <path class="fil1" d="M183 293c0,-1 1,-3 1,-4l1 -1 1 5 -3 0zm-1 3l6 0 0 2 6 0c-1,-2 -3,-5 -3,-7l-3 -6c-1,-2 0,-2 -6,-2l-6 15 5 0 1 -2z"/>
    <path class="fil1" d="M92 286c2,0 4,0 4,2 0,2 -2,2 -4,2l0 -4zm0 7c3,0 5,0 7,-1 3,-2 4,-9 -4,-9 -2,0 -5,0 -8,0l0 15 5 0 0 -5z"/>
   </g>
  </g>
  <path class="fil2" d="M151 49l0 4c0,1 1,2 2,2 0,1 0,1 0,1 1,1 1,1 1,1 1,0 1,1 2,2 0,0 0,0 0,0 0,1 0,1 0,1 0,0 0,0 0,1 1,0 1,0 1,0 0,0 0,1 0,1l0 3c0,0 0,0 0,0 1,1 0,1 1,1 0,1 1,1 2,1 1,1 4,0 4,0l1 -2c1,0 3,1 3,2 1,1 2,2 1,4 0,2 -2,4 -4,5 0,1 0,2 1,2 1,2 2,2 4,1l1 -1c0,0 0,0 0,-1 1,0 1,-1 3,-1l0 -4c2,1 4,2 4,3 1,1 3,3 2,4 1,1 0,0 1,0 0,1 0,1 1,2 0,1 1,3 3,3l1 1c1,1 3,0 4,0 0,0 0,0 1,0 0,-1 -1,0 -1,-1 3,0 1,-1 4,-1 1,-1 2,-1 4,-2 1,0 3,0 4,1 0,1 -2,2 -3,3 0,1 0,2 0,3 0,2 0,3 2,5 1,0 1,0 1,0 2,0 2,0 3,0l0 0c1,-1 1,-1 1,-1l2 -2c1,0 0,-1 1,-1 0,-2 -1,-3 -1,-4 1,0 2,1 2,1 1,0 2,1 2,1 2,1 5,4 5,6 4,8 0,17 -6,23 -4,3 -9,5 -17,5 -3,-1 -6,-1 -9,-3 -1,0 -6,-3 -6,-4 -1,0 -3,-1 -4,-2 -1,0 -4,-2 -4,-2 -5,-1 -9,-2 -14,-1 -4,1 -6,3 -9,5 0,0 -2,-2 -4,-3 -7,-4 -14,-2 -19,-1 -1,1 -1,1 -1,1 -3,1 -6,3 -7,3 0,1 -1,1 -1,1 -1,1 -1,1 -2,1 -9,6 -22,7 -29,0 -1,0 -1,-1 -1,-1 -6,-6 -8,-14 -5,-22 1,-1 3,-5 5,-5 0,-1 3,-3 5,-3 -1,1 -1,2 -1,3 0,2 0,1 1,2 0,0 0,0 0,0 0,1 0,0 0,1 1,0 1,0 1,0 0,1 1,1 1,1l1 0c0,1 0,0 1,1 1,0 1,0 2,0 1,-2 1,0 2,-2 0,-1 0,-4 0,-6l0 0c0,-1 -2,-2 -3,-3 2,-1 3,-1 5,-1 1,0 2,0 3,1 0,0 -1,0 0,0 0,0 0,0 1,0 0,0 3,1 4,2 -1,0 -1,-1 -1,0 0,0 1,0 2,0 0,1 0,0 0,0l3 1c1,-1 0,-1 1,-1l0 0c0,0 0,0 0,0l1 -1c1,-1 0,0 1,-1 1,0 0,-2 1,-4 0,0 0,1 0,0 0,0 0,-1 0,-1 1,0 0,0 1,0 1,-1 0,-2 2,-2 1,-1 2,-2 4,-3 0,2 1,4 1,5 2,0 2,1 3,3 1,0 2,1 2,1 1,0 1,0 3,-1 0,0 0,0 0,0l1 -1c0,0 0,0 0,0 0,0 0,-1 0,-1 0,-1 0,-1 0,-1 -1,-2 -4,-3 -5,-5 -1,-3 2,-7 5,-7l0 1c1,0 3,0 4,0 3,-1 2,-4 3,-7l0 -1c1,-1 0,0 1,-1 0,0 0,0 1,0 0,-1 0,-1 1,-2l2 -2c2,-1 1,0 2,-2l0 -3c-1,0 -1,0 -1,0l-1 0c0,0 0,0 0,0l2 0 0 1c-1,1 -2,1 -3,1l-1 2c-1,1 -1,0 -1,1 0,0 -1,0 -1,0l-2 2c0,1 0,1 0,1 -1,0 0,0 -1,1l0 1c0,1 0,2 -1,3 0,2 0,2 -2,2 -1,0 0,0 -2,0 -4,1 -5,-1 -7,2l0 1c-1,1 -1,1 -2,2 0,1 0,1 0,1 -1,2 -1,2 -4,2 0,0 -2,0 -3,0l-3 5c0,1 0,1 0,1l-2 4c0,1 0,1 -2,1l-2 -1c0,0 0,0 0,0 0,0 0,0 0,0l-2 -1c-1,0 -1,0 -1,-1 -2,-1 -4,-1 -6,-1 -1,0 -3,0 -4,2 -2,2 -1,4 -6,4 -1,0 -2,0 -4,0 -2,-1 -3,1 -5,2 0,0 0,0 0,0 0,0 0,0 0,0 -2,2 -3,3 -3,5 -1,0 -1,0 -1,1 0,1 -1,0 -1,1l-1 3c0,2 0,6 0,8 0,0 0,0 1,0 0,0 0,1 0,1l1 3c0,1 0,1 0,1 1,2 2,4 3,5 0,1 1,1 1,1l2 3c1,1 3,2 4,3 0,0 0,0 1,1 2,0 3,1 7,2 2,0 9,1 12,0 0,0 1,0 1,0 2,-1 3,-1 4,-1 1,-1 3,-1 4,-2 0,0 0,0 0,0 1,-1 3,-1 4,-2 0,-1 1,-1 2,-2 1,0 1,0 1,0l2 -1c0,-1 1,-1 1,-1 1,0 2,-1 3,-1 3,-1 12,-2 15,0l2 1c2,1 2,1 4,1 1,0 3,0 4,0l4 -2c1,-1 1,-1 2,-1 -1,0 -1,0 -2,0 4,0 8,-1 11,0 4,1 6,2 9,4 0,0 1,1 2,1 1,0 2,1 3,2 1,0 1,0 2,1 1,0 0,0 1,0 1,0 1,0 1,0 1,1 1,1 2,1 1,0 1,0 1,1 3,1 7,1 10,1 1,0 3,0 4,0 1,-1 1,0 1,-1 1,0 3,0 4,-1 0,0 0,0 1,0 2,-1 2,-1 3,-2l4 -2c1,-1 2,-2 2,-3l1 -1c0,0 1,0 1,-1l1 -2c1,0 1,-1 1,-2l1 -2c0,0 0,0 0,0 0,0 0,0 0,0 0,-2 1,-2 1,-4 0,-1 1,-3 1,-5 -1,-2 -1,-4 -2,-6 0,-1 0,-1 0,-1l-1 -2c-1,-1 -1,-2 -2,-3l-1 -1c-1,-1 -3,-2 -4,-3 -1,0 -5,0 -6,1 -4,0 -3,-4 -6,-6 -1,0 -7,0 -9,2l0 0c-1,1 -3,2 -4,2 -4,2 -4,-1 -5,-3 0,-1 0,-3 -1,-4l0 -1c0,0 0,0 0,-1l-2 -1c0,0 0,0 0,0l0 0c-1,-1 0,0 -1,-1 -3,0 -4,1 -5,-1l-2 -1c0,-1 0,-1 0,-2 -1,0 -1,-2 -2,-2 -1,-1 -5,-1 -6,-1 -1,0 -1,0 -2,0 0,0 0,1 -1,1 0,-1 -1,0 -1,-1l-1 -4c0,-1 -1,-2 -1,-3l-2 -3c0,0 0,0 0,0l-4 -4c0,0 0,0 0,0 -1,0 -2,0 -2,0z"/>
  <path class="fil3" d="M179 114c0,1 5,4 6,4 3,2 6,2 9,3 8,0 13,-2 17,-5 6,-6 10,-15 6,-23 0,-2 -3,-5 -5,-6 0,1 1,3 -2,7l-1 3c-1,1 -1,1 -2,2 -2,2 -2,3 -4,4l-1 1c-1,0 -1,0 -1,0l-6 4c-3,1 -8,3 -10,4 -1,1 -6,2 -6,2l0 0z"/>
  <path class="fil3" d="M117 114l-4 -1c-1,-1 0,0 -1,-1l-6 -2c-2,-1 -7,-3 -8,-4 -2,-1 -2,-1 -4,-2 0,0 0,0 0,0 -1,-2 -2,-3 -4,-4l0 0c-2,-2 -4,-5 -5,-7 -1,-3 -1,-4 -1,-5 -2,0 -4,4 -5,5 -3,8 -1,16 5,22 0,0 0,1 1,1 7,7 20,6 29,0 1,0 1,0 2,-1 0,0 1,0 1,-1z"/>
  <path class="fil4" d="M109 146c0,2 3,6 4,7 2,2 4,4 7,5 12,6 27,3 34,-8 2,-2 3,-5 4,-8 1,-5 0,-6 -1,-10 0,1 0,1 0,2 0,1 -1,1 -1,2 0,0 0,0 0,0 -1,1 -1,1 -1,2 0,1 -1,2 -1,2 -1,1 -1,1 -1,2l-5 3c-3,2 -6,4 -9,5 -2,0 -2,0 -4,1 -1,0 -3,0 -4,0 -7,0 -10,-1 -16,-3l-5 -2c0,0 -1,-1 -1,0z"/>
  <path class="fil5" d="M105 97c1,1 1,1 1,1l2 2c2,1 2,1 4,2 1,0 1,1 2,1l3 2c1,0 1,0 2,0l3 2c3,0 6,1 8,1 1,1 2,0 3,1 2,0 6,-1 10,1 1,1 0,1 1,1 2,0 3,0 4,0 2,0 3,0 5,0 0,0 1,-1 2,-1 1,-1 2,-1 3,-1 2,0 4,0 6,0 4,-1 5,-1 8,-2l9 -3 5 -3c0,0 0,0 0,0 0,0 0,0 0,0l3 -2c2,-1 3,-2 3,-3 0,-1 -2,-5 -3,-5 0,5 -4,7 -9,5l-3 2c0,0 -2,1 -3,1l2 2c-1,1 -3,3 -5,4 -4,2 -4,0 -5,-1 0,0 -1,0 -2,0 -2,1 -3,1 -5,1 -1,0 -3,1 -4,1 -2,0 -11,0 -13,0 -1,0 -3,0 -4,-1l-4 -1c0,1 -2,2 -2,2 -1,-1 -1,-2 0,-3 -1,1 -4,3 -6,3 -3,0 -4,-3 -4,-5 0,0 0,0 0,0 -1,0 -2,0 -2,-1l-5 -3c0,0 0,0 0,0 0,0 0,0 0,0 0,0 0,0 0,0 -2,0 -4,-1 -5,-2 -1,-1 -2,-2 -2,-4 -1,1 -3,4 -3,6z"/>
  <path class="fil6" d="M131 89c-1,1 -1,3 -2,4 -2,0 -4,-2 -5,-3 -1,-1 -3,-2 -5,-2 0,1 1,1 2,2 0,1 0,1 0,3 0,0 0,0 2,1 1,1 3,2 4,3 0,0 0,0 1,0 0,1 0,1 1,1 0,0 0,0 0,0 1,-1 1,-1 2,-2 0,0 1,-1 1,-1 1,0 1,1 1,2 0,0 -1,0 -1,1 0,0 0,0 1,0 0,0 1,0 1,0 1,0 1,1 1,1 -1,1 -1,1 -2,2 1,0 3,-2 4,-2 -1,-2 -2,-3 -1,-5 1,0 1,3 2,4 2,0 5,-1 6,2 1,0 2,1 4,1 0,-1 3,-3 6,-4 3,-1 4,2 4,5 1,-1 1,0 2,-1 1,0 1,0 1,-1 0,0 1,0 1,0 0,-1 1,-1 1,-2 2,-1 3,-1 5,-1 0,0 0,0 1,0 0,0 0,0 0,0 0,-1 -1,-1 0,-1 0,-1 0,-1 0,-1 1,0 2,0 3,0 1,0 3,-2 4,-2 0,-1 0,-1 0,-2 0,0 0,0 0,0 1,-2 2,-2 2,-3 -4,-1 -6,5 -10,5 -2,-2 -2,-5 -2,-6 0,1 0,1 -1,2 -1,1 -1,2 -2,2 -2,1 -3,2 -4,2l-2 1c-1,0 -6,1 -8,1 -4,0 -8,0 -12,-2 -1,-1 -3,-1 -5,-2 0,-1 0,-1 0,-1 0,0 0,0 -1,-1z"/>
  <path class="fil7" d="M84 88c0,1 0,2 1,5 1,2 3,5 5,7l0 0c2,1 3,2 4,4 0,0 0,0 0,0 2,1 2,1 4,2 1,1 6,3 8,4l6 2c1,1 0,0 1,1l4 1c1,0 4,-2 7,-3 0,0 0,0 1,-1 -6,1 -8,2 -13,-1 -4,-2 -6,-4 -7,-8 -1,0 -1,0 -1,-1 -1,0 -1,0 -1,0 -2,-1 -4,-3 -4,-4 -1,-1 -1,-1 -1,-1 -2,0 -2,1 -4,1 -7,0 -7,-6 -6,-8 0,-1 0,-2 1,-3 -2,0 -5,2 -5,3z"/>
  <path class="fil8" d="M109 129c0,2 -1,4 -1,6 0,0 0,1 0,0 1,0 1,0 1,0 1,2 0,1 1,1 0,1 0,0 0,1 1,0 1,0 1,0 1,1 -1,-1 1,1l4 3 2 1c2,0 3,1 5,1 1,0 1,0 2,0 1,0 2,1 3,1 6,0 9,-2 14,-4 0,0 0,0 0,0 -1,-1 -1,0 -1,-1 1,0 1,0 2,-1 0,0 1,-1 1,-1l1 0c0,-1 0,-1 0,-1 1,-1 1,-1 2,-2 0,-1 0,-2 1,-3 1,-3 0,-10 -2,-12 0,0 0,0 0,0 0,-1 -5,-3 -6,-3l0 0c0,1 0,1 1,1l2 3c1,1 2,4 2,5 0,2 0,3 0,4l-1 0c0,0 1,0 0,0l0 2c-1,1 -1,2 -2,3 -1,1 -1,1 -1,2 -1,0 -1,0 -2,1 -1,1 -1,1 -3,1 0,1 0,1 -1,1 0,0 0,0 -1,0 0,0 0,0 0,0 -1,1 -3,1 -4,1 -2,0 -3,0 -5,0 0,0 -1,0 -1,0l-3 -1c-1,0 -1,-1 -3,-1 0,0 0,0 0,0 0,0 0,0 -1,0 0,0 0,-1 0,-1l0 0c-2,-1 -1,0 -2,-1 -1,-1 -1,-1 -2,-1 0,0 0,-1 0,-1 0,0 0,0 0,0l-1 -1c-1,-2 -2,-3 -3,-4z"/>
  <path class="fil9" d="M108 140c0,0 0,1 0,2 1,-1 0,0 1,0 1,0 1,0 2,1 0,1 -1,0 0,1 0,0 0,0 1,0 1,0 -1,0 1,1 1,0 0,0 1,0 0,0 0,0 1,0l1 1c3,1 5,1 8,2 2,1 4,1 7,0 4,0 5,0 8,-1 3,-1 9,-4 11,-7 0,-1 1,0 1,-2 0,0 1,0 1,0 0,-1 0,-1 0,-1l1 -2c1,-1 1,-3 2,-4 0,-1 0,-1 0,-2 0,0 0,-1 0,-1 0,-2 -3,-6 -4,-6 -1,0 -1,0 -1,1 0,0 1,1 1,3 0,1 0,3 0,4 0,2 -1,3 -2,4 0,1 0,1 0,1 -1,1 0,1 -1,2 0,0 0,0 -1,0 -1,2 1,1 -1,2l-4 3c-1,0 -1,0 -1,1 -2,1 -4,1 -6,2 -2,0 -4,0 -5,0 -2,0 -4,0 -7,0 0,0 0,0 -1,0 -1,-1 -1,0 -2,-1 0,0 0,0 -1,0 0,0 0,0 0,0l-1 -1c-1,0 -1,0 -2,0l-3 -2c-1,-1 0,0 0,0 -3,-2 -2,-1 -4,-3 0,0 0,0 -1,0 0,-1 0,0 0,-1l0 3z"/>
  <path class="fil10" d="M112 125c-1,1 -2,3 -3,4 1,1 2,2 3,4l1 1c0,0 0,0 0,0 0,0 0,1 0,1 1,0 1,0 2,1 1,1 0,0 2,1l0 0c0,0 0,1 0,1 1,0 1,0 1,0 0,0 0,0 0,0 2,0 2,1 3,1l3 1c0,0 1,0 1,0 2,0 3,0 5,0 1,0 3,0 4,-1 0,0 0,0 0,0 1,0 1,0 1,0 1,0 1,0 1,-1 2,0 2,0 3,-1 1,-1 1,-1 2,-1 0,-1 0,-1 1,-2 1,-1 1,-2 2,-3l0 -2c1,0 0,0 0,0l1 0c0,-1 0,-2 0,-4 0,-1 -1,-4 -2,-5l-2 -3c-1,0 -1,0 -1,-1l0 0c0,0 0,0 -1,0 -2,-1 -5,-1 -6,-1l3 2c1,1 1,1 1,1 1,1 1,1 1,1 2,2 3,5 3,7 0,3 -1,6 -3,7l0 0c0,0 0,0 0,0 -2,2 0,0 -1,1 0,0 0,0 0,0l-3 2c0,0 -1,0 -1,0 -1,1 -4,1 -5,1 -2,0 -5,0 -7,-1 -1,0 -3,-1 -4,-2l-2 -2c-1,-1 -3,-4 -3,-7l0 0z"/>
  <path class="fil11" d="M172 95c1,0 1,0 1,1 0,0 -1,1 -1,1 -1,0 -2,0 -3,0 0,0 0,0 0,0 -1,0 -1,0 -1,0 0,1 1,2 1,3 1,1 1,1 0,2 -1,-1 -1,-2 -2,-3 -2,0 -3,1 -4,1 0,1 0,1 -1,2 0,0 0,0 0,0 -1,1 -1,1 -1,1 0,-1 -1,-1 -1,-2 -1,1 -1,0 -2,1l0 1c1,0 1,0 2,0l0 1c-1,1 -3,1 -4,1l0 -1c0,-1 0,-1 1,-1 0,-2 0,-3 -1,-4 -3,-1 -6,2 -7,4 -1,0 -2,2 -3,2 0,-1 -1,-1 -1,-1l2 -3c1,0 0,0 1,0 -2,0 -3,-1 -4,-1l0 4c-2,-2 -1,-6 -5,-4 -2,1 -5,3 -5,4l4 1c1,1 3,1 4,1 2,0 11,0 13,0 1,0 3,-1 4,-1 2,0 3,0 5,-1 1,0 2,0 2,0 0,-2 0,-2 1,-3 1,1 1,4 4,3 1,-1 3,-3 3,-5l-4 1 0 -2c1,0 3,0 4,0l0 1c1,0 3,-1 3,-1l3 -2c-2,-1 -4,-2 -4,-5 0,0 0,0 0,0 0,1 0,1 0,2 -1,0 -3,2 -4,2z"/>
  <path class="fil12" d="M168 46l0 1 2 4c-1,0 0,0 -1,0 1,1 0,1 1,1 0,0 1,0 1,0 1,-1 5,-2 6,-2l0 -13c0,-1 0,-1 0,-2l0 -2c0,0 -1,0 -2,-1 0,0 0,0 -1,0l-3 -2c-1,0 -1,0 -1,0l-1 0c-1,0 0,0 -1,0 0,0 0,0 0,0 0,1 0,11 0,14 0,0 0,1 0,1 0,1 0,1 0,1z"/>
  <path class="fil13" d="M118 75c-1,1 -2,3 -2,4 1,3 1,3 0,5 -1,1 -2,2 -3,3 -2,1 -3,1 -5,0 0,1 0,1 0,2 0,0 0,0 0,1 0,4 4,8 9,6 3,-1 5,-4 3,-7 -1,-1 -2,-1 -2,-2l2 0c0,0 -1,0 -1,-1 0,-2 2,-5 3,-6l2 -1 -1 -2c0,-1 -1,-3 -1,-5 -2,1 -3,2 -4,3z"/>
  <path class="fil14" d="M133 77l1 0c1,1 1,2 1,3 -1,2 -2,3 -4,3 -5,1 -7,-3 -7,-4l-2 1c-1,1 -3,4 -3,6 0,1 1,1 1,1 4,1 6,6 9,6 2,-2 1,-5 3,-7 0,-1 1,-2 2,-3 1,0 1,0 2,0 2,-1 1,-1 2,0 0,-1 0,-1 0,-1l0 0c1,-1 1,-1 1,-1 1,0 3,-1 4,-1 0,-3 1,-3 1,-5 0,-1 0,-1 0,-1 -1,0 0,0 -1,0 0,0 -1,0 -1,0 -2,1 -8,2 -9,3z"/>
  <path class="fil15" d="M209 89c1,4 -2,6 -6,7 0,0 0,0 0,1 -1,0 -1,0 -1,1l-1 0c0,0 0,0 0,0 0,0 0,0 0,0l-6 5c0,1 -5,4 -6,4 -1,0 -1,1 -3,2 -7,4 -10,2 -15,1 0,0 3,2 4,2 1,1 3,2 4,2l0 0c0,0 5,-1 6,-2 2,-1 7,-3 10,-4l6 -4c0,0 0,0 1,0l1 -1c2,-1 2,-2 4,-4 1,-1 1,-1 2,-2l1 -3c3,-4 2,-6 2,-7 0,0 -1,-1 -2,-1 0,0 -1,-1 -2,-1 0,1 1,2 1,4z"/>
  <path class="fil16" d="M201 49c0,1 1,2 1,2 1,1 1,1 2,2 0,0 1,-1 2,-1 3,-2 6,-2 7,-2l0 -1c0,0 0,0 0,0 1,0 0,0 1,0l0 -8c0,-1 0,-1 -1,-1l-2 -1c-3,-1 -8,-3 -10,-4 0,2 0,9 0,13 0,1 0,1 0,1z"/>
  <path class="fil17" d="M108 142c0,1 0,3 1,4 0,-1 1,0 1,0l5 2c6,2 9,3 16,3 1,0 3,0 4,0 2,-1 2,-1 4,-1 3,-1 6,-3 9,-5l5 -3c0,-1 0,-1 1,-2 0,0 1,-1 1,-2 0,-1 0,-1 1,-2 0,0 0,0 0,0 0,-1 1,-1 1,-2 0,-1 0,-1 0,-2 0,-1 -1,-4 -2,-4 0,0 0,1 0,1 0,1 0,1 0,2 -1,1 -1,3 -2,4l-1 2c0,0 0,0 0,1 0,0 -1,0 -1,0 0,2 -1,1 -1,2 -2,3 -8,6 -11,7 -3,1 -4,1 -8,1 -3,1 -5,1 -7,0 -3,-1 -5,-1 -8,-2l-1 -1c-1,0 -1,0 -1,0 -1,0 0,0 -1,0 -2,-1 0,-1 -1,-1 -1,0 -1,0 -1,0 -1,-1 0,0 0,-1 -1,-1 -1,-1 -2,-1 -1,0 0,-1 -1,0z"/>
  <path class="fil18" d="M154 79c1,0 3,1 4,1 0,0 0,0 1,0 3,2 2,2 4,3l0 0c0,1 1,1 2,2 2,3 1,6 3,8 3,-1 5,-5 9,-6l1 0c0,0 0,0 0,0 0,-1 0,-2 0,-3l-1 -1c0,0 0,0 0,0 0,-1 -1,-3 -2,-3 -1,-1 -1,-1 -2,-2 0,0 0,1 -1,2 0,0 -1,1 -2,1 -5,4 -10,0 -8,-3l2 -1 -5 -2c-1,0 -5,-1 -6,-1 0,2 1,3 1,5z"/>
  <path class="fil14" d="M139 39c0,-6 7,-10 13,-8 1,0 2,1 3,2l1 1c0,0 0,0 0,0 0,1 0,1 1,1 1,3 1,6 -2,9 -6,6 -16,2 -16,-5zm7 9l2 0 6 0c0,0 0,0 1,-1l4 -4c0,-1 1,-1 1,-2 0,-2 1,-3 0,-4 0,-1 0,-2 0,-3 0,0 0,0 0,0l0 0c-1,-1 -1,-1 -2,-2 0,0 0,0 0,0 -1,0 -1,0 -2,0 -3,-4 -2,-4 -8,-4 -3,0 -6,1 -8,3l-2 1c0,0 0,0 0,0 -2,3 -3,6 -2,9 0,1 1,3 3,5l1 1c0,0 1,0 1,0 1,2 2,0 5,1z"/>
  <path class="fil19" d="M142 39c0,-1 1,-3 2,-4l0 0c0,0 0,0 0,0l1 0c2,-2 5,-2 7,0 1,0 1,1 1,1 1,1 1,1 1,2 0,2 0,2 -1,4l-1 0c-2,2 -5,2 -7,1 0,0 0,0 -1,0l0 -1c-1,-1 -2,-2 -2,-3zm-3 0c0,7 10,11 16,5 3,-3 3,-6 2,-9 -1,0 -1,0 -1,-1 0,0 0,0 0,0l-1 -1c-1,-1 -2,-2 -3,-2 -6,-2 -13,2 -13,8z"/>
  <path class="fil20" d="M127 130c-3,0 -5,-1 -6,-3l0 -1c0,0 0,0 0,0 0,0 0,0 0,0l0 -1c-1,-2 4,-6 8,-3l2 1c2,3 1,4 0,5l0 1c0,0 0,0 0,0 -1,1 -3,1 -4,1zm-10 -5l0 2c0,0 0,0 0,0l2 2c1,2 2,2 3,3 2,1 3,1 6,1 2,0 2,0 3,-1 2,0 1,0 2,0 0,-1 0,-1 1,-2l1 -1c1,-1 1,-3 1,-5 -1,-1 -2,-2 -2,-3l-1 -1c-1,-1 -6,-3 -9,-2 -2,1 -3,1 -4,2 -1,0 -1,0 -1,1 -1,1 -1,-1 -2,2 0,1 0,1 0,2z"/>
  <g id="_470217024">
   <path class="fil21" d="M235 180c1,-2 3,-8 4,-11 -2,-1 -3,-2 -4,-3 -4,-2 -8,-5 -12,-7 -15,-7 -34,-11 -51,-12 -3,0 -9,-1 -12,-1 1,0 9,2 11,3 11,2 22,5 32,9 10,4 22,10 29,18 1,1 1,2 2,3l1 1z"/>
   <g>
    <path class="fil22" d="M162 258l0 -8c3,0 7,0 10,0 3,1 5,1 5,4 0,2 -1,3 -2,3 -2,1 -10,1 -13,1zm19 6c2,0 6,-1 7,-3 8,-4 7,-14 -2,-17 -5,-2 -13,-1 -19,-1 -5,0 -17,-1 -21,0l0 38 16 0 0 -16c3,0 6,1 7,2 1,1 6,8 7,10 0,0 3,4 4,4l17 0c0,-1 -2,-4 -3,-5 -1,-2 -2,-3 -4,-5 -1,-2 -2,-3 -4,-4 -2,-3 -4,-2 -5,-3z"/>
    <path class="fil22" d="M106 251c10,0 15,0 15,11 0,11 -4,10 -15,10l0 -21zm-16 30c1,0 6,0 8,0 8,0 18,0 25,-1 17,-3 17,-23 11,-30 -7,-8 -17,-7 -27,-7 -3,0 -16,-1 -17,0l0 38z"/>
    <path class="fil22" d="M219 251c10,0 15,1 15,11 1,10 -4,10 -15,10l0 -21zm-16 30c6,0 11,0 17,0 10,0 20,0 27,-7 3,-3 4,-7 4,-12 0,-10 -6,-17 -15,-19 -5,-1 -11,0 -16,0 -6,0 -11,-1 -17,0l0 38z"/>
    <path class="fil22" d="M239 169c-1,3 -3,9 -4,11 -2,3 -7,7 -10,9 -16,12 -47,18 -67,22l-11 1c-1,0 -2,0 -3,1l0 0c9,0 19,-1 28,-2 19,-2 45,-7 61,-17l5 -3c1,-1 3,-2 5,-5 1,-1 2,-1 3,-2 0,-1 1,-3 2,-4 0,0 1,-2 1,-3 1,-3 2,-7 1,-11 -2,-20 -31,-32 -51,-37 -6,-2 -24,-6 -31,-5 7,1 18,4 24,6 11,3 21,7 31,13 2,1 6,4 8,6 2,2 4,5 6,8 1,4 2,8 2,12z"/>
    <path class="fil21" d="M238 191c-1,19 -23,30 -41,35 -16,5 -31,8 -48,11l-17 2c7,1 16,0 23,0 20,-1 40,-4 59,-10 5,-2 11,-4 15,-7 10,-5 19,-13 21,-24 1,-5 0,-13 -2,-18 -1,1 -2,3 -2,4 -1,1 -2,1 -3,2 -2,3 -4,4 -5,5z"/>
    <path class="fil22" d="M223 288l2 5 -4 0 2 -5zm-20 -2c2,0 5,0 5,2 0,2 -3,2 -5,2l0 -4zm6 6c1,-1 2,-1 2,-1 2,-2 2,-5 0,-7 -1,-1 -4,-1 -6,-1 -2,0 -5,0 -7,0l0 15 5 0 0 -6c2,0 3,2 3,3 1,1 2,3 3,3l10 0 1 -2 6 0 1 2 5 0 -5 -11c0,0 -1,-3 -1,-4l-6 0 -6 15c0,0 -1,-1 -1,-2 -1,-2 -2,-3 -4,-4z"/>
    <path class="fil22" d="M159 298l5 0 3 -9c1,1 3,8 3,9l5 0 4 -15 -5 0c-1,1 -1,7 -2,9 -1,-2 -2,-8 -3,-9l-4 0c-1,1 0,1 -1,1l0 4c-1,1 -1,2 -2,4 -1,-2 -1,-6 -2,-9l-4 0 3 15z"/>
    <path class="fil22" d="M238 290c1,1 0,0 1,1 1,0 5,7 6,7l4 0 0 -15 -4 0c-1,2 0,7 0,9 -1,-1 -3,-4 -4,-5l-2 -3c-1,-1 -1,-1 -5,-1l0 15 4 0 0 -8z"/>
    <path class="fil22" d="M111 287l9 0 0 -4 -14 0c0,2 0,13 0,15 3,0 12,1 14,0l0 -3 -9 0 0 -3 8 0 0 -3 -8 0 0 -2z"/>
    <path class="fil22" d="M122 293c-1,7 14,8 15,1 0,-5 -7,-5 -9,-6 -2,-1 0,-3 2,-2 1,1 1,1 2,2l4 0c0,-4 -4,-5 -7,-5 -4,0 -7,2 -6,6 1,3 4,3 8,4 2,1 1,3 -1,3 -3,0 -3,-1 -3,-3l-5 0z"/>
    <path class="fil22" d="M145 293c0,-1 1,-5 2,-5l1 5 -3 0zm-2 5c0,0 0,1 0,-1 0,0 1,-1 1,-1l5 0 1 2 6 0c-1,0 -6,-14 -7,-15l-5 0 -6 15 5 0z"/>
    <path class="fil22" d="M186 293c0,-1 1,-3 1,-4l1 -1 1 5 -3 0zm-1 3l5 0 1 2 5 0c0,-2 -2,-5 -3,-7l-2 -6c-1,-2 0,-2 -6,-2l-6 15 5 0 1 -2z"/>
    <path class="fil22" d="M95 286c2,0 4,0 4,2 0,2 -2,2 -4,2l0 -4zm0 7c3,0 5,0 7,-1 2,-2 3,-9 -4,-9 -3,0 -6,0 -8,0l0 15 5 0 0 -5z"/>
   </g>
  </g>
  <path class="fil19" d="M131 89c1,1 1,1 1,1 0,0 0,0 0,1 2,1 4,1 5,2 4,2 8,2 12,2 2,0 7,-1 8,-1l2 -1c1,0 2,-1 4,-2 1,0 1,-1 2,-2 1,-1 1,-1 1,-2 -1,-1 -3,-4 -6,-4 1,1 2,1 2,3 0,2 -1,3 -2,4 0,1 -2,1 -3,2 -2,0 -3,-1 -4,-1 0,0 0,0 -1,0l-3 0c-1,0 -4,0 -5,0 0,0 0,0 0,0 -2,0 -2,1 -5,0 -1,0 -2,-1 -3,-2 -2,-3 0,-5 1,-6 -3,0 -5,3 -6,6z"/>
  <path class="fil23" d="M164 109c1,0 4,0 5,0 6,1 10,3 15,1 4,-2 7,-5 8,-9 0,-1 1,-4 0,-5 0,1 -1,2 -3,3l-3 2c0,0 0,0 0,0 0,0 0,0 0,0l-5 3 -9 3c-3,1 -4,1 -8,2z"/>
  <path class="fil24" d="M108 135l0 5 0 -3c0,1 0,0 0,1 1,0 1,0 1,0 2,2 1,1 4,3 0,0 -1,-1 0,0l3 2c1,0 1,0 2,0l1 1c0,0 0,0 0,0 1,0 1,0 1,0 1,1 1,0 2,1 1,0 1,0 1,0 3,0 5,0 7,0 1,0 3,0 5,0 2,-1 4,-1 6,-2 0,-1 0,-1 1,-1l4 -3c2,-1 0,0 1,-2 1,0 1,0 1,0 1,-1 0,-1 1,-2 0,0 0,0 0,-1 1,-1 2,-2 2,-4 0,-1 0,-3 0,-4 0,-2 -1,-3 -1,-3 0,-1 0,-1 1,-1 -1,-1 -1,-1 -2,-2 -1,0 -1,0 -1,-1 -1,0 -1,0 -2,0 0,0 0,0 0,0 2,2 3,9 2,12 -1,1 -1,2 -1,3 -1,1 -1,1 -2,2 0,0 0,0 0,1l-1 0c0,0 -1,1 -1,1 -1,1 -1,1 -2,1 0,1 0,0 1,1 0,0 0,0 0,0 -5,2 -8,4 -14,4 -1,0 -2,-1 -3,-1 -1,0 -1,0 -2,0 -2,0 -3,-1 -5,-1l-2 -1 -4 -3c-2,-2 0,0 -1,-1 0,0 0,0 -1,0 0,-1 0,0 0,-1 -1,0 0,1 -1,-1 0,0 0,0 -1,0 0,1 0,0 0,0z"/>
  <path class="fil25" d="M147 20c0,1 0,4 0,6 -1,0 -1,0 -2,-1 0,1 0,0 0,1 0,0 -1,0 -1,0 0,0 -1,0 -1,0 1,0 2,0 2,0l0 0c-1,1 -1,0 -1,1l-3 2c-2,1 -1,1 -3,2l-2 2c0,1 0,1 -1,1l-1 2c-1,1 -2,3 -3,4l1 2c0,0 0,0 0,0 0,1 0,1 0,2l2 3c0,0 0,0 0,0l0 1c1,0 1,0 1,0 1,1 0,1 2,1 2,0 5,-1 7,-1 0,0 0,0 0,0l1 0c0,0 0,0 1,0l0 0c-3,-1 -4,1 -5,-1 0,0 -1,0 -1,0l-1 -1c-2,-2 -3,-4 -3,-5 -1,-3 0,-6 2,-9 0,0 0,0 0,0l2 -1c2,-2 5,-3 8,-3 6,0 5,0 8,4 1,0 1,0 2,0 -2,-2 -4,-4 -5,-5 -1,0 -1,0 -1,0l-1 -1c1,0 3,0 4,0 1,0 2,1 3,1 2,0 3,1 4,1 1,0 1,0 2,1 0,0 1,0 1,0 1,0 2,1 3,1 0,0 0,0 0,0 1,0 0,0 1,0l1 0c0,0 0,0 0,0 -2,-1 -8,-2 -9,-3 -1,0 -1,0 -2,0l-1 -1c2,0 4,0 5,0l4 1c1,0 1,0 1,0 0,0 0,0 0,0l-8 -1c-2,0 -8,0 -9,-1l-1 0 0 -3c0,0 -1,0 0,0 -1,-2 -1,-4 -2,-5 0,1 -1,2 -1,3z"/>
  <path class="fil26" d="M127 116c0,0 2,0 3,0 1,1 0,0 1,1l1 1c1,0 1,0 2,0 0,1 1,1 1,1l1 2c1,1 2,2 2,3 0,2 0,4 -1,5 0,1 0,0 0,1 -1,2 0,0 -1,2 -1,1 -2,1 -3,2 0,0 0,0 0,0 0,0 -1,0 -1,0 0,1 0,1 -1,1 -2,0 -5,0 -7,0 -2,-1 0,0 -2,-1 -1,0 -1,0 -2,-1 0,0 0,0 0,0 -1,-1 -4,-3 -4,-4 0,0 1,0 0,-1 -1,0 -2,-5 -1,-6l0 0c0,0 -3,2 -3,3l0 0c0,3 2,6 3,7l2 2c1,1 3,2 4,2 2,1 5,1 7,1 1,0 4,0 5,-1 0,0 1,0 1,0l3 -2c0,0 0,0 0,0 1,-1 -1,1 1,-1 0,0 0,0 0,0l0 0c2,-1 3,-4 3,-7 0,-2 -1,-5 -3,-7 0,0 0,0 -1,-1 0,0 0,0 -1,-1l-3 -2c-2,0 -4,0 -6,1z"/>
  <path class="fil13" d="M174 76l-1 2c1,1 1,1 2,2 1,0 2,2 2,3 0,0 0,0 0,0l1 1c0,1 0,2 0,3 0,0 0,0 0,0l-1 0 2 0c0,1 -3,2 -2,6 0,1 2,3 4,3 1,0 1,0 2,-1 1,-2 1,-1 2,-3 0,0 0,0 0,0 0,0 0,0 0,0 0,0 0,0 0,0l1 -2c0,0 0,0 0,-1 1,-1 1,-1 1,-1 -3,0 -4,-2 -5,-3 -2,-2 -2,-3 -2,-6 1,-1 -1,-3 -2,-4 0,-1 -2,-2 -4,-3l0 4z"/>
  <path class="fil27" d="M97 85c1,1 2,3 2,5 1,1 0,2 0,3 0,1 -1,1 -1,2 0,0 0,0 1,1 0,1 2,3 4,4 0,0 0,0 1,0 0,1 0,1 1,1 -1,-2 0,-4 0,-6 1,-1 2,-5 3,-5 0,-1 0,-1 0,-1 0,-1 0,-1 0,-2 -2,-1 -3,-2 -5,-3 0,-1 -1,-1 -2,-2 0,0 -2,0 -2,-1 -2,0 -3,0 -5,1 1,1 3,2 3,3z"/>
  <path class="fil28" d="M133 109c-1,-1 -2,0 -3,-1 -2,0 -5,-1 -8,-1l-3 -2c-1,0 -1,0 -2,0l-3 -2c-1,0 -1,-1 -2,-1 -2,-1 -2,-1 -4,-2l-2 -2c0,0 0,0 -1,-1 -1,7 4,11 9,13 3,1 6,1 10,0l9 -1z"/>
  <path class="fil29" d="M117 125c0,-1 0,-1 0,-2 1,-3 1,-1 2,-2 0,-1 0,-1 1,-1 1,-1 2,-1 4,-2 3,-1 8,1 9,2l1 1c0,1 1,2 2,3 0,2 0,4 -1,5l-1 1c-1,1 -1,1 -1,2 -1,0 0,0 -2,0 -1,1 -1,1 -3,1 -3,0 -4,0 -6,-1 -1,-1 -2,-1 -3,-3l-2 -2c0,0 0,0 0,0l0 -2zm-2 -3l0 0c-1,1 0,6 1,6 1,1 0,1 0,1 0,1 3,3 4,4 0,0 0,0 0,0 1,1 1,1 2,1 2,1 0,0 2,1 2,0 5,0 7,0 1,0 1,0 1,-1 0,0 1,0 1,0 0,0 0,0 0,0 1,-1 2,-1 3,-2 1,-2 0,0 1,-2 0,-1 0,0 0,-1 1,-1 1,-3 1,-5 0,-1 -1,-2 -2,-3l-1 -2c0,0 -1,0 -1,-1 -1,0 -1,0 -2,0l-1 -1c-1,-1 0,0 -1,-1 -1,0 -3,0 -3,0 -3,0 -11,4 -12,6z"/>
  <path class="fil30" d="M118 33c0,0 0,1 0,1 0,0 0,0 0,0 0,0 0,0 0,0l0 15c0,0 0,0 0,0l1 0c0,1 6,2 7,2 0,0 0,0 -1,0 0,0 0,0 0,0 -1,-2 0,-14 0,-18 0,-3 0,-1 1,-3 -1,1 -7,3 -8,3z"/>
  <path class="fil31" d="M87 38c0,1 0,10 0,12l0 0c0,1 2,1 3,1 1,1 1,1 2,2 1,0 1,-1 1,-2 1,-1 2,-1 2,-2 0,0 0,0 0,-1 0,-2 0,-12 0,-13 -1,0 -7,3 -8,3z"/>
  <path class="fil32" d="M153 82c0,1 -2,2 -2,4 0,2 1,4 2,5 1,0 2,1 4,1 1,-1 3,-1 3,-2 1,-1 2,-2 2,-4 0,-2 -1,-2 -2,-3 3,0 5,3 6,4 0,1 0,4 2,6 4,0 6,-6 10,-5 0,1 -1,1 -2,3 0,3 2,4 4,5 5,2 9,0 9,-5 1,0 3,4 3,5 1,1 0,4 0,5 -1,4 -4,7 -8,9 -5,2 -9,0 -15,-1 -1,0 -4,0 -5,0 -2,0 -4,0 -6,0 -1,0 -2,0 -3,1 -1,0 -2,1 -2,1 -1,0 -2,1 -3,1 0,1 -1,2 -2,2 -1,0 -1,-1 -2,-2 0,0 -2,-1 -2,-1 -1,0 0,0 -1,-1 -4,-2 -8,-1 -10,-1l-9 1c-4,1 -7,1 -10,0 -5,-2 -10,-6 -9,-13 0,-2 2,-5 3,-6 0,2 1,3 2,4 1,1 3,2 5,2 2,0 3,-1 4,-2 0,0 1,0 1,-1 0,0 1,-1 1,-1 0,-2 0,-2 0,-3 -1,-1 -2,-1 -2,-2 2,0 4,1 5,2 1,1 3,3 5,3 1,-1 1,-3 2,-4 1,-3 3,-6 6,-6 -1,1 -3,3 -1,6 1,1 2,2 3,2 3,1 3,0 5,0 1,-1 2,-2 2,-4 0,-3 -1,-4 -1,-5 -1,-1 -2,-3 -2,-4 1,-2 1,-4 2,-5l4 -7 3 7c1,1 2,5 2,6 0,1 -1,2 -1,3zm-6 -15c0,1 -1,3 -1,4 -1,1 -2,3 -2,4 0,2 -1,2 -1,5 1,2 2,4 3,6 0,6 -7,7 -10,3 -1,-3 1,-6 2,-6 -1,-1 0,-1 -2,0 -1,0 -1,0 -2,0 -1,1 -2,2 -2,3 -2,2 -1,5 -3,7 -3,0 -5,-5 -9,-6l-2 0c0,1 1,1 2,2 2,3 0,6 -3,7 -5,2 -9,-2 -9,-6 -1,0 -2,4 -3,5 0,2 -1,4 0,6 1,4 3,6 7,8 5,3 7,2 13,1 5,-1 12,-3 19,1 2,1 4,3 4,3 3,-2 5,-4 9,-5 5,-1 9,0 14,1 5,1 8,3 15,-1 2,-1 2,-2 3,-2 0,-1 1,-1 2,-2 0,-1 0,-1 1,-2 0,-2 1,-3 1,-5 -1,-3 -1,-4 -2,-6 -1,0 -1,-2 -2,-2 0,1 0,2 -1,3 -1,4 -6,4 -7,3 -2,0 -4,-2 -4,-3 -1,-4 2,-5 2,-6l-2 0c-4,1 -6,5 -9,6 -2,-2 -1,-5 -3,-8 -1,-1 -2,-1 -2,-2 -1,0 -2,-1 -3,-1 0,1 3,4 1,7 -3,4 -11,2 -9,-4 0,-2 1,-3 2,-6 0,-2 -1,-3 -1,-5 0,0 -3,-6 -3,-6 0,-1 -1,-2 -1,-2 0,-1 0,0 -1,-1 0,1 0,1 0,1l-1 1z"/>
  <path class="fil33" d="M134 70c0,0 0,0 0,0 -1,0 -3,1 -4,1l-2 1c-1,0 0,0 -1,0 1,2 4,3 5,5l1 0c1,-1 7,-2 9,-3 0,0 1,0 1,0 1,0 0,0 1,0 0,0 0,0 0,1 0,-1 1,-3 2,-4 0,-1 1,-3 1,-4 0,0 -4,0 -5,0l-1 0c0,1 0,1 -1,2 0,1 -1,1 -1,1 -3,1 -4,1 -5,0z"/>
  <path class="fil34" d="M163 83l0 0c-2,-1 -1,-1 -4,-3 -1,0 -1,0 -1,0 -1,0 -3,-1 -4,-1 -1,3 -2,4 -2,6 -2,6 6,8 9,4 2,-3 -1,-6 -1,-7 1,0 2,1 3,1z"/>
  <path class="fil35" d="M142 39c0,1 1,2 2,3l0 1c1,0 1,0 1,0 2,1 5,1 7,-1l1 0c1,-2 1,-2 1,-4 0,-1 0,-1 -1,-2 0,0 0,-1 -1,-1 -2,-2 -5,-2 -7,0l-1 0c0,0 0,0 0,0l0 0c-1,1 -2,3 -2,4z"/>
  <path class="fil33" d="M153 74c1,0 5,1 6,1l5 2c0,0 1,-1 1,-1 2,-1 4,-3 4,-5 0,0 0,0 0,0 -1,0 -1,0 -2,0 0,0 0,0 0,-1l-2 0c-1,0 -1,0 -2,-1 -1,1 -2,2 -4,2 -3,-1 -3,-2 -4,-3 0,0 -2,0 -2,0 -1,0 -2,0 -3,0 0,0 3,6 3,6z"/>
  <path class="fil30" d="M101 33l0 1c0,1 0,1 0,2l0 5c0,1 0,2 0,2l2 0c0,-1 0,0 0,-1 0,0 0,0 0,0 1,0 1,0 1,-1 2,-1 3,-2 5,-3l2 -1c0,0 1,0 2,-1 -1,0 -1,0 -1,0 0,-1 0,-6 0,-6 -1,0 -10,2 -11,3z"/>
  <path class="fil18" d="M127 30c0,0 0,0 -1,0 0,0 0,0 0,0 -1,1 0,0 0,0 -1,2 -1,0 -1,3 0,4 -1,16 0,18 0,0 0,0 0,0 1,0 1,0 1,0 0,0 -1,1 0,0 0,0 0,0 0,0 0,0 0,0 0,0l2 -4 1 -3 1 -1c-1,0 -1,-2 -1,-3 0,-1 0,-2 0,-4 0,-2 1,-5 0,-7l-2 1z"/>
  <path class="fil36" d="M177 50c0,0 5,-1 5,-1l0 -1c1,0 1,-11 0,-12 0,0 1,0 0,0l-5 -3 0 2c0,1 0,1 0,2l0 13z"/>
  <path class="fil37" d="M138 83c-1,0 -3,3 -2,6 3,4 10,3 10,-3 -1,-2 -2,-4 -3,-6 -1,0 -3,1 -4,1 0,0 0,0 -1,1l0 0c0,0 0,0 0,1z"/>
  <path class="fil36" d="M95 35c0,1 0,11 0,13 0,1 0,1 0,1 0,0 3,-2 3,-3 1,0 1,0 2,-1 1,-1 1,-1 1,-2 0,0 0,-1 0,-2l0 -5c0,-1 0,-1 0,-2l0 -1c-1,0 -6,2 -6,2z"/>
  <path class="fil11" d="M115 97c0,0 0,0 0,0 0,0 0,0 0,0 0,0 0,0 0,0l5 3c0,1 1,1 2,1 0,0 0,0 0,0 0,-1 0,-2 1,-2 1,2 0,3 2,4 2,1 3,0 5,-1 0,-1 1,-1 2,-2 0,0 1,-1 1,-2 -1,0 -1,0 -1,0 -1,0 -1,1 -2,1 -1,0 -1,-1 -1,-1 0,0 0,0 0,0 -1,0 -1,0 -1,-1 -1,0 -1,0 -1,0 -1,-1 -3,-2 -4,-3 -2,-1 -2,-1 -2,-1 0,0 -1,1 -1,1 0,1 -1,1 -1,1 -1,1 -2,2 -4,2z"/>
  <path class="fil38" d="M182 49c3,-1 5,-1 7,0l1 -1c0,-1 0,-2 0,-4 0,-1 0,-3 0,-4 0,0 0,0 0,0 -1,-1 -4,-2 -5,-3l-3 -1c1,1 1,12 0,12l0 1z"/>
  <path class="fil33" d="M185 37c1,1 4,2 5,3 1,1 1,1 2,2 1,0 2,1 3,1 0,0 0,-9 -1,-10 0,0 -8,-3 -9,-3 0,1 -1,1 0,1l0 5c0,0 0,0 0,0 0,1 0,1 0,1z"/>
  <path class="fil36" d="M195 43c0,1 0,1 0,1 0,0 0,0 0,0 0,0 0,0 0,0 1,0 2,2 3,2 1,1 1,1 1,2 1,0 1,1 2,1 0,0 0,0 0,-1 0,-4 0,-11 0,-13 -1,0 -5,-2 -7,-2 1,1 1,10 1,10z"/>
  <path class="fil27" d="M194 83c-1,1 -1,1 -1,2 0,0 0,1 0,2 0,1 -1,3 -2,4 0,1 0,1 0,1 1,2 1,3 2,6l3 -5c1,-1 0,-1 1,-1 0,-1 0,-2 1,-4 0,-1 1,-3 1,-3 1,-1 3,-2 3,-3 -1,-1 -3,-1 -4,-1 -2,1 -3,1 -4,2z"/>
  <path class="fil39" d="M141 64l0 0c1,0 2,0 3,0l8 0c1,0 2,0 3,0l1 0c0,-1 1,-2 0,-3 0,-1 0,-1 0,-1 0,0 0,0 0,-1 0,0 0,0 0,0 -1,1 -3,0 -4,0l-8 0c-1,0 -3,1 -3,0 0,0 0,0 0,0 0,0 0,0 0,0 -1,1 -1,2 -1,3 0,1 1,1 1,2z"/>
  <path class="fil40" d="M133 98c0,1 -1,2 -1,2 -1,1 -2,1 -2,2 -2,1 -3,2 -5,1 -2,-1 -1,-2 -2,-4 -1,0 -1,1 -1,2 0,2 1,5 4,5 2,0 5,-2 6,-3 -1,1 -1,2 0,3 0,0 2,-1 2,-2 0,-1 3,-3 5,-4 4,-2 3,2 5,4l0 -4c-1,-3 -4,-2 -6,-2 -1,-1 -1,-4 -2,-4 -1,2 0,3 1,5 -1,0 -3,2 -4,2 1,-1 1,-1 2,-2 0,0 0,-1 -1,-1 0,0 -1,0 -1,0z"/>
  <path class="fil41" d="M131 26c0,1 -1,1 1,1l3 -1c0,0 3,0 3,0 0,0 1,0 0,0l-2 1c-1,0 -2,0 -2,0 -1,1 -4,2 -5,2 1,2 0,5 0,7 0,2 0,3 0,4 0,1 0,3 1,3l1 -3c1,-1 2,-3 3,-4l1 -2c1,0 1,0 1,-1 0,0 0,-5 0,-6 1,0 3,0 3,0l4 -1c-1,0 -2,0 -3,0 -1,0 -2,0 -3,0 -2,0 -4,0 -6,0z"/>
  <path class="fil42" d="M193 98c0,2 -1,3 -1,5 -1,1 -1,1 -1,2 -1,1 -2,1 -2,2 1,0 6,-3 6,-4l6 -5c0,0 0,0 0,0 0,0 0,0 0,0l1 0c0,-1 0,-1 1,-1 0,-1 0,-1 0,-1 -2,0 -3,0 -4,-1 -1,-1 -1,-1 -2,-3 -1,0 0,0 -1,1l-3 5z"/>
  <path class="fil43" d="M162 37c1,1 1,1 1,1 0,0 0,1 0,1l1 0c0,1 1,1 1,2 0,1 1,2 1,2l2 3c0,0 0,0 0,-1 0,0 0,-1 0,-1 0,-3 0,-13 0,-14 -1,0 -2,-1 -3,-1 0,0 -1,0 -1,0 -1,-1 -1,-1 -2,-1l0 9z"/>
  <path class="fil44" d="M112 30c0,0 0,5 0,6 0,0 0,0 1,0 0,0 0,0 1,0 0,-1 0,-1 0,-1 0,0 1,0 1,0l3 -2c1,0 7,-2 8,-3 0,0 -1,1 0,0 0,0 0,0 0,0 1,0 1,0 1,0 0,0 0,0 -1,0l0 -3c1,1 2,0 2,0l2 0c1,0 0,0 1,-1 -7,1 -11,2 -17,3 0,0 -1,1 -2,1z"/>
  <path class="fil45" d="M114 36l0 10c0,2 0,2 0,3l5 0 -1 0c0,0 0,0 0,0l0 -15c0,0 0,0 0,0 0,0 0,0 0,0 0,0 0,-1 0,-1l-3 2c0,0 -1,0 -1,0 0,0 0,0 0,1z"/>
  <path class="fil35" d="M145 82c0,1 1,2 1,5 0,2 -1,3 -2,4 0,0 0,0 0,0 1,0 4,0 5,0l3 0c1,0 1,0 1,0 -1,-1 -2,-3 -2,-5 0,-2 2,-3 2,-4 -1,-1 -6,-1 -7,-1 -2,0 -1,0 -1,1z"/>
  <path class="fil46" d="M81 41c0,2 0,7 0,7 0,2 -1,1 0,1l0 0c0,0 5,1 6,1l0 0c0,-2 0,-11 0,-12 -1,1 -5,3 -6,3z"/>
  <path class="fil47" d="M81 49l0 0c-1,0 0,1 0,-1 0,0 0,-5 0,-7 -5,2 -10,5 -14,8 -1,0 -1,0 -1,1 2,0 5,0 7,-1 2,0 6,0 8,0z"/>
  <path class="fil31" d="M113 36c-1,1 -2,1 -2,1l-2 1c0,1 0,1 -1,1l0 9c1,0 3,0 4,0l2 1c0,-1 0,-1 0,-3l0 -10c-1,0 -1,0 -1,0z"/>
  <path class="fil14" d="M174 32c1,0 1,0 1,0 1,1 2,1 2,1l5 3c1,0 0,0 0,0l3 1c0,0 0,0 0,-1 0,0 0,0 0,0l0 -5c-1,0 0,0 0,-1 -1,0 -12,-3 -14,-3 0,1 -1,0 1,1l2 0 0 4z"/>
  <path class="fil42" d="M213 50c2,-1 6,-1 8,-1l2 0c0,-1 0,-2 0,-4 -1,0 -8,-4 -9,-4l0 8c-1,0 0,0 -1,0 0,0 0,0 0,0l0 1z"/>
  <path class="fil48" d="M124 124c1,-1 5,-1 5,1 1,3 -3,3 -5,2 0,0 0,-1 0,-2l0 -1zm3 6c1,0 3,0 4,-1 0,0 0,0 0,0l0 -1c1,-1 2,-2 0,-5l-2 -1c-4,-3 -9,1 -8,3l0 1c0,0 0,0 0,0 0,0 0,0 0,0l0 1c1,2 3,3 6,3z"/>
  <path class="fil39" d="M103 43l0 0c-1,0 -1,0 -1,0 0,0 0,0 0,0 0,0 0,0 0,0l0 6 1 0c3,-1 6,-1 9,-1 -1,0 -3,0 -4,0l0 -9c1,0 1,0 1,-1 -2,1 -3,2 -5,3 0,1 0,1 -1,1 0,0 0,0 0,0 0,1 0,0 0,1z"/>
  <path class="fil49" d="M99 81c0,1 2,1 2,1 1,1 2,1 2,2 2,1 3,2 5,3 2,1 3,1 5,0 1,-1 2,-2 3,-3 1,-2 1,-2 0,-5 0,-1 1,-3 2,-4 -2,0 -1,1 -2,2 -1,0 0,0 -1,0 0,0 0,1 0,1 0,1 0,0 0,0 -1,2 0,4 -1,4 -1,1 0,0 -1,1l-1 1c0,0 0,0 0,0l0 0c-1,0 0,0 -1,1l-3 -1c0,0 0,1 0,0 -1,0 -2,0 -2,0 0,-1 0,0 1,0 -1,-1 -4,-2 -4,-2 -1,0 -1,0 -1,0 -1,0 0,0 0,0 -1,-1 -2,-1 -3,-1z"/>
  <path class="fil50" d="M88 88c-1,2 -1,8 6,8 2,0 2,-1 4,-1 0,-1 1,-1 1,-2 0,-1 1,-2 0,-3 0,-2 -1,-4 -2,-5l0 0c0,2 0,5 0,6 -1,2 -1,0 -2,2 -1,0 -1,0 -2,0 -1,-1 -1,0 -1,-1l-1 0c0,0 -1,0 -1,-1 0,0 0,0 -1,0 0,-1 0,0 0,-1 0,0 0,0 0,0 -1,-1 -1,0 -1,-2z"/>
  <path class="fil51" d="M141 64l0 3 1 0c1,0 5,0 5,0l1 -1c0,0 0,0 0,-1 1,1 1,0 1,1 0,0 1,1 1,2 1,0 2,0 3,0 0,0 2,0 2,0 0,-2 0,-2 1,-4l-1 0c-1,0 -2,0 -3,0l-8 0c-1,0 -2,0 -3,0z"/>
  <path class="fil52" d="M187 88c0,0 0,0 -1,1 0,1 0,1 0,1l-1 2c0,0 0,0 0,0 0,0 0,0 0,0 0,0 0,0 0,0 -1,2 -1,1 -2,3 -1,1 -1,1 -2,1 1,1 6,1 7,-3 1,-1 1,-2 1,-3 1,0 1,2 2,2 0,0 0,0 0,-1 1,-1 2,-3 2,-4 0,-1 0,-2 0,-2 -2,1 -3,2 -6,3z"/>
  <path class="fil53" d="M132 66c0,1 0,2 1,2 1,0 1,1 4,0 1,0 1,0 2,0 0,0 0,-1 1,-1l0 -1c1,-1 0,0 1,-1 0,0 0,-1 0,-1 0,-1 -1,-1 -1,-2 0,-1 0,-2 1,-3 0,0 0,0 0,0 0,0 0,0 0,0 0,-1 1,-2 1,-2 1,-1 1,-1 2,-2l2 -1 0 -3c-1,2 0,1 -2,2l-2 2c-1,1 -1,1 -1,2 -1,0 -1,0 -1,0 -1,1 0,0 -1,1l0 1c-1,3 0,6 -3,7 -1,0 -3,0 -4,0z"/>
  <path class="fil12" d="M154 48c0,0 1,0 0,0l3 1c1,-1 1,0 3,-3 2,-2 3,-3 3,-6l1 -1c0,0 0,0 0,0l-1 0c0,0 0,-1 0,-1 0,0 0,0 -1,-1 0,0 -1,-2 -2,-3 0,1 0,2 0,3 1,1 0,2 0,4 0,1 -1,1 -1,2l-4 4c-1,1 -1,1 -1,1z"/>
  <path class="fil54" d="M197 92c1,2 1,2 2,3 1,1 2,1 4,1 4,-1 7,-3 6,-7 -1,0 0,1 -1,1l-2 2c0,0 0,0 -1,1l0 0c-1,0 -1,0 -3,0 0,0 0,0 -1,0 -2,-2 -2,-3 -2,-5 0,-1 0,-2 0,-3 0,0 -1,2 -1,3 -1,2 -1,3 -1,4z"/>
  <path class="fil14" d="M143 78c2,0 4,-1 6,0 1,0 3,0 4,0l1 1c0,-1 -1,-5 -2,-6 -1,0 -2,0 -3,0 -2,0 -3,0 -4,0 -1,1 -1,3 -2,5z"/>
  <path class="fil54" d="M164 77l-2 1c-2,3 3,7 8,3 1,0 2,-1 2,-1 1,-1 1,-2 1,-2l1 -2c-2,0 -2,1 -3,1 0,1 0,1 0,1l-1 1c-2,1 -3,1 -4,-1 -1,0 -1,-1 -1,-2 0,0 -1,1 -1,1z"/>
  <path class="fil47" d="M141 59c0,1 2,0 3,0l8 0c1,0 3,1 4,0 -1,-1 -1,-2 -2,-2 0,0 0,0 -1,-1 0,0 0,0 0,-1 -1,1 0,1 -1,1l-6 0c-2,0 -1,0 -2,-1 -1,1 -1,1 -2,2 0,0 -1,1 -1,2z"/>
  <path class="fil40" d="M148 101c-1,0 0,0 -1,0l-2 3c0,0 1,0 1,1 1,0 2,-2 3,-2 1,-2 4,-5 7,-4 1,1 1,2 1,4 -1,0 -1,0 -1,1l0 1c1,0 3,0 4,-1l0 -1c-1,0 -1,0 -2,0l0 -1c0,-3 -1,-6 -4,-5 -3,1 -6,3 -6,4z"/>
  <path class="fil54" d="M187 88c3,-1 4,-2 6,-3 0,-1 0,-1 1,-2 -3,0 -1,1 -4,1 0,1 1,0 1,1 -1,0 -1,0 -1,0 -1,0 -3,1 -4,0l-1 -1c-2,0 -3,-2 -3,-3 -1,-1 -1,-1 -1,-2 -1,0 0,1 -1,0 0,3 0,4 2,6 1,1 2,3 5,3z"/>
  <path class="fil54" d="M156 64c-1,2 -1,2 -1,4 1,1 1,2 4,3 2,0 3,-1 4,-2 1,-1 1,-1 1,-2 0,0 -3,1 -4,0 -1,0 -2,0 -2,-1 -1,0 0,0 -1,-1 0,0 0,0 0,0l0 -3c0,0 0,-1 0,-1 0,0 0,0 -1,0 1,1 0,2 0,3z"/>
  <path class="fil55" d="M143 78c0,1 1,3 2,4 0,-1 -1,-1 1,-1 1,0 6,0 7,1 0,-1 1,-2 1,-3l-1 -1c-1,0 -3,0 -4,0 -2,-1 -4,0 -6,0z"/>
  <path class="fil42" d="M189 49l5 0 1 0 0 -5c0,0 0,0 0,0 0,0 0,0 0,0 0,0 0,0 0,-1 -1,0 -2,-1 -3,-1 -1,-1 -1,-1 -2,-2 0,0 0,0 0,0 0,1 0,3 0,4 0,2 0,3 0,4l-1 1z"/>
  <path class="fil56" d="M158 32c1,1 1,1 2,2l0 0c0,0 0,0 0,0 1,1 2,3 2,3l0 -9c-1,0 -2,-1 -4,-1l0 5z"/>
  <path class="fil57" d="M123 77l1 2c0,1 2,5 7,4 2,0 3,-1 4,-3 0,-1 0,-2 -1,-3l-1 0 -1 0c0,0 0,0 0,1 0,0 0,1 0,1 0,0 0,0 0,0l-1 1c0,0 0,0 0,0 -2,1 -2,1 -3,1 0,0 -1,-1 -2,-1 -1,-2 -1,-3 -3,-3z"/>
  <path class="fil56" d="M170 30c0,0 0,0 1,0l3 2 0 -4 -2 0c-2,-1 -1,0 -1,-1 -1,0 -2,0 -3,0 0,0 0,0 0,0 0,0 0,0 -1,0l-4 -1c-1,0 -3,0 -5,0l1 1c1,0 1,0 2,0 1,1 7,2 9,3 0,0 0,0 0,0z"/>
  <path class="fil40" d="M166 104c1,1 1,3 5,1 2,-1 4,-3 5,-4l-2 -2 0 -1c-1,0 -3,0 -4,0l0 2 4 -1c0,2 -2,4 -3,5 -3,1 -3,-2 -4,-3 -1,1 -1,1 -1,3z"/>
  <path class="fil47" d="M101 43c0,1 0,1 -1,2 -1,1 -1,1 -2,1 0,1 -3,3 -3,3 0,1 -1,1 -2,2 3,0 7,-2 10,-2l-1 0 0 -6c0,0 0,0 0,0 0,0 0,0 0,0 0,0 0,0 1,0l0 0 -2 0z"/>
  <path class="fil37" d="M136 33l2 -2c2,-1 1,-1 3,-2l3 -2c0,-1 0,0 1,-1l0 0c0,0 -1,0 -2,0l-4 1c0,0 -2,0 -3,0 0,1 0,6 0,6z"/>
  <path class="fil51" d="M130 43l-1 1c0,1 0,1 1,2l0 1c1,1 1,1 1,1 1,2 0,1 1,2 1,0 4,-1 5,-1 -2,0 -1,0 -2,-1 0,0 0,0 -1,0l0 -1c0,0 0,0 0,0l-2 -3c0,-1 0,-1 0,-2 0,0 0,0 0,0l-1 -2 -1 3z"/>
  <path class="fil58" d="M127 72c1,0 0,0 1,0l2 -1c1,0 3,-1 4,-1 0,0 0,0 0,0 0,-1 -1,-1 -1,-2 -1,0 -1,-1 -1,-2l0 -1c-3,0 -6,4 -5,7z"/>
  <path class="fil59" d="M145 73c1,0 2,0 4,0 1,0 2,0 3,0l-3 -7 -4 7z"/>
  <path class="fil7" d="M194 49l8 2c0,0 -1,-1 -1,-2 -1,0 -1,-1 -2,-1 0,-1 0,-1 -1,-2 -1,0 -2,-2 -3,-2l0 5 -1 0z"/>
  <path class="fil52" d="M164 67c0,1 0,1 -1,2 1,1 1,1 2,1l2 0c0,1 0,1 0,1 1,0 1,0 2,0 0,0 0,0 0,0 1,-2 0,-3 -1,-4 0,-1 -2,-2 -3,-2l-1 2z"/>
  <path class="fil60" d="M124 125c0,1 0,2 0,2 2,1 6,1 5,-2 0,-2 -4,-2 -5,-1l0 1z"/>
  <path class="fil40" d="M160 101c0,1 1,1 1,2 0,0 0,0 1,-1 0,0 0,0 0,0 1,-1 1,-1 1,-2 1,0 2,-1 4,-1 1,1 1,2 2,3 1,-1 1,-1 0,-2 0,-1 -1,-2 -1,-3 -2,0 -3,0 -5,1 0,1 -1,1 -1,2 0,0 -1,0 -1,0 0,1 0,1 -1,1z"/>
  <path class="fil57" d="M133 68c0,1 1,1 1,2 1,1 2,1 5,0 0,0 1,0 1,-1 1,-1 1,-1 1,-2l0 -3 0 0c0,0 0,1 0,1 -1,1 0,0 -1,1l0 1c-1,0 -1,1 -1,1 -1,0 -1,0 -2,0 -3,1 -3,0 -4,0z"/>
  <path class="fil35" d="M158 32c0,0 0,0 0,0l0 -5c-1,0 -2,-1 -3,-1 -1,0 -3,0 -4,0l1 1c0,0 0,0 1,0 1,1 3,3 5,5z"/>
  <path class="fil61" d="M148 52l-2 2 -2 1c1,1 0,1 2,1l6 0c1,0 0,0 1,-1 -1,0 -2,-1 -2,-2 -1,0 -1,1 -1,0l0 0 -2 -1c0,0 0,0 0,0z"/>
  <path class="fil13" d="M157 49l2 0c1,0 1,0 3,-1 0,-1 0,-1 0,-1l1 -1c0,0 0,0 0,0l2 -3c0,-1 0,-1 0,-2 0,-1 -1,-1 -1,-2 0,0 0,0 0,0l-1 1c0,3 -1,4 -3,6 -2,3 -2,2 -3,3z"/>
  <path class="fil62" d="M159 49l3 1 1 0c0,-1 0,-1 1,-2 0,0 0,-1 1,-1 1,-2 1,-2 1,-4 0,0 -1,-1 -1,-2 0,1 0,1 0,2l-2 3c0,0 0,0 0,0l-1 1c0,0 0,0 0,1 -2,1 -2,1 -3,1z"/>
  <path class="fil15" d="M221 49c1,0 8,1 9,1 0,-1 -2,-2 -3,-2 -1,-1 -3,-2 -4,-3 0,2 0,3 0,4l-2 0z"/>
  <path class="fil23" d="M162 50l4 0 0 0c-1,-1 0,0 1,-1 0,-1 0,-2 1,-2l0 -1 -2 -3c0,2 0,2 -1,4 -1,0 -1,1 -1,1 -1,1 -1,1 -1,2l-1 0z"/>
  <path class="fil37" d="M131 26l0 0c-1,1 0,1 -1,1l-2 0c0,0 -1,1 -2,0l0 3c1,0 1,0 1,0l2 -1c1,0 4,-1 5,-2 0,0 1,0 2,0l2 -1c1,0 0,0 0,0 0,0 -3,0 -3,0l-3 1c-2,0 -1,0 -1,-1z"/>
  <path class="fil28" d="M153 111c-2,0 -3,0 -5,0 -1,0 -2,0 -4,0 0,0 2,1 2,1 1,1 1,2 2,2 1,0 2,-1 2,-2 1,0 2,-1 3,-1z"/>
  <path class="fil42" d="M128 47c1,3 0,1 1,3 0,0 0,0 1,1 1,-1 2,-1 2,-1 -1,-1 0,0 -1,-2 0,0 0,0 -1,-1l0 -1c-1,-1 -1,-1 -1,-2l-1 3z"/>
  <path class="fil63" d="M148 52c0,0 0,0 0,0l2 1c-1,-2 -1,-3 -1,-5l1 0 0 5c0,1 0,0 1,0l0 -4 0 -1 3 0c1,0 0,0 0,0l-6 0c-1,0 0,0 -1,0l1 4z"/>
  <path class="fil61" d="M166 50l3 1c1,0 0,0 1,0l-2 -4c-1,0 -1,1 -1,2 -1,1 -2,0 -1,1l0 0z"/>
  <path class="fil28" d="M145 25c1,1 1,1 2,1 0,-2 0,-5 0,-6 0,1 -2,2 -2,2 -1,2 -1,3 0,3z"/>
  <path class="fil64" d="M146 51l0 3 2 -2 -1 -4c1,0 0,0 1,0l-2 0 0 0 0 3z"/>
  <path class="fil40" d="M129 98c0,0 0,1 1,1 1,0 1,-1 2,-1 0,-1 1,-1 1,-1 0,-1 0,-2 -1,-2 0,0 -1,1 -1,1 -1,1 -1,1 -2,2z"/>
  <path class="fil65" d="M151 25c0,0 0,0 0,0 1,0 1,-2 0,-3 0,0 0,-1 -1,0 -1,0 0,0 0,0l0 3 1 0z"/>
  <path class="fil40" d="M169 97c1,0 2,0 3,0 0,0 1,-1 1,-1 0,-1 0,-1 -1,-1 -1,0 -2,0 -3,0 0,0 0,0 0,1 -1,0 0,0 0,1z"/>
  <path class="fil66" d="M126 51l4 0c-1,-1 -1,-1 -1,-1 -1,-2 0,0 -1,-3l-2 4z"/>
  <path class="fil53" d="M150 53l0 0 0 -5 -1 0c0,2 0,3 1,5z"/>
 </g>
</svg>
